<?xml version="1.0" encoding="utf-8"?>
<svg xmlns="http://www.w3.org/2000/svg" xmlns:xlink="http://www.w3.org/1999/xlink" width="800" height="500" viewBox="0 0 3200 2000">
<defs>
  <clipPath id="clip740">
    <rect x="0" y="0" width="3200" height="2000"/>
  </clipPath>
</defs>
<path clip-path="url(#clip740)" d="M0 2000 L3200 2000 L3200 0 L0 0  Z" fill="#ffffff" fill-rule="evenodd" fill-opacity="1"/>
<defs>
  <clipPath id="clip741">
    <rect x="640" y="0" width="2241" height="2000"/>
  </clipPath>
</defs>
<path clip-path="url(#clip740)" d="M110.74 1901.26 L3152.76 1901.26 L3152.76 47.2441 L110.74 47.2441  Z" fill="#ffffff" fill-rule="evenodd" fill-opacity="1"/>
<defs>
  <clipPath id="clip742">
    <rect x="110" y="47" width="3043" height="1855"/>
  </clipPath>
</defs>
<polyline clip-path="url(#clip742)" style="stroke:#000000; stroke-linecap:round; stroke-linejoin:round; stroke-width:2; stroke-opacity:0.1; fill:none" points="212.56,1901.26 212.56,47.2441 "/>
<polyline clip-path="url(#clip742)" style="stroke:#000000; stroke-linecap:round; stroke-linejoin:round; stroke-width:2; stroke-opacity:0.1; fill:none" points="935.913,1901.26 935.913,47.2441 "/>
<polyline clip-path="url(#clip742)" style="stroke:#000000; stroke-linecap:round; stroke-linejoin:round; stroke-width:2; stroke-opacity:0.1; fill:none" points="1635.68,1901.26 1635.68,47.2441 "/>
<polyline clip-path="url(#clip742)" style="stroke:#000000; stroke-linecap:round; stroke-linejoin:round; stroke-width:2; stroke-opacity:0.1; fill:none" points="2359.03,1901.26 2359.03,47.2441 "/>
<polyline clip-path="url(#clip742)" style="stroke:#000000; stroke-linecap:round; stroke-linejoin:round; stroke-width:2; stroke-opacity:0.1; fill:none" points="3082.39,1901.26 3082.39,47.2441 "/>
<polyline clip-path="url(#clip740)" style="stroke:#000000; stroke-linecap:round; stroke-linejoin:round; stroke-width:4; stroke-opacity:1; fill:none" points="110.74,1901.26 3152.76,1901.26 "/>
<polyline clip-path="url(#clip740)" style="stroke:#000000; stroke-linecap:round; stroke-linejoin:round; stroke-width:4; stroke-opacity:1; fill:none" points="212.56,1901.26 212.56,1882.36 "/>
<polyline clip-path="url(#clip740)" style="stroke:#000000; stroke-linecap:round; stroke-linejoin:round; stroke-width:4; stroke-opacity:1; fill:none" points="935.913,1901.26 935.913,1882.36 "/>
<polyline clip-path="url(#clip740)" style="stroke:#000000; stroke-linecap:round; stroke-linejoin:round; stroke-width:4; stroke-opacity:1; fill:none" points="1635.68,1901.26 1635.68,1882.36 "/>
<polyline clip-path="url(#clip740)" style="stroke:#000000; stroke-linecap:round; stroke-linejoin:round; stroke-width:4; stroke-opacity:1; fill:none" points="2359.03,1901.26 2359.03,1882.36 "/>
<polyline clip-path="url(#clip740)" style="stroke:#000000; stroke-linecap:round; stroke-linejoin:round; stroke-width:4; stroke-opacity:1; fill:none" points="3082.39,1901.26 3082.39,1882.36 "/>
<path clip-path="url(#clip740)" d="M84.3547 1966.12 L100.674 1966.12 L100.674 1970.06 L78.7297 1970.06 L78.7297 1966.12 Q81.3917 1963.37 85.975 1958.74 Q90.5815 1954.09 91.7621 1952.75 Q94.0074 1950.22 94.887 1948.49 Q95.7898 1946.73 95.7898 1945.04 Q95.7898 1942.28 93.8454 1940.55 Q91.9241 1938.81 88.8223 1938.81 Q86.6232 1938.81 84.1695 1939.57 Q81.739 1940.34 78.9612 1941.89 L78.9612 1937.17 Q81.7853 1936.03 84.2389 1935.45 Q86.6926 1934.87 88.7297 1934.87 Q94.1 1934.87 97.2944 1937.56 Q100.489 1940.25 100.489 1944.74 Q100.489 1946.87 99.6787 1948.79 Q98.8916 1950.68 96.7852 1953.28 Q96.2065 1953.95 93.1046 1957.17 Q90.0028 1960.36 84.3547 1966.12 Z" fill="#000000" fill-rule="nonzero" fill-opacity="1" /><path clip-path="url(#clip740)" d="M120.489 1938.58 Q116.878 1938.58 115.049 1942.14 Q113.243 1945.68 113.243 1952.81 Q113.243 1959.92 115.049 1963.49 Q116.878 1967.03 120.489 1967.03 Q124.123 1967.03 125.929 1963.49 Q127.757 1959.92 127.757 1952.81 Q127.757 1945.68 125.929 1942.14 Q124.123 1938.58 120.489 1938.58 M120.489 1934.87 Q126.299 1934.87 129.354 1939.48 Q132.433 1944.06 132.433 1952.81 Q132.433 1961.54 129.354 1966.15 Q126.299 1970.73 120.489 1970.73 Q114.679 1970.73 111.6 1966.15 Q108.544 1961.54 108.544 1952.81 Q108.544 1944.06 111.6 1939.48 Q114.679 1934.87 120.489 1934.87 Z" fill="#000000" fill-rule="nonzero" fill-opacity="1" /><path clip-path="url(#clip740)" d="M141.461 1966.12 L149.1 1966.12 L149.1 1939.76 L140.79 1941.43 L140.79 1937.17 L149.053 1935.5 L153.729 1935.5 L153.729 1966.12 L161.368 1966.12 L161.368 1970.06 L141.461 1970.06 L141.461 1966.12 Z" fill="#000000" fill-rule="nonzero" fill-opacity="1" /><path clip-path="url(#clip740)" d="M180.813 1938.58 Q177.201 1938.58 175.373 1942.14 Q173.567 1945.68 173.567 1952.81 Q173.567 1959.92 175.373 1963.49 Q177.201 1967.03 180.813 1967.03 Q184.447 1967.03 186.252 1963.49 Q188.081 1959.92 188.081 1952.81 Q188.081 1945.68 186.252 1942.14 Q184.447 1938.58 180.813 1938.58 M180.813 1934.87 Q186.623 1934.87 189.678 1939.48 Q192.757 1944.06 192.757 1952.81 Q192.757 1961.54 189.678 1966.15 Q186.623 1970.73 180.813 1970.73 Q175.002 1970.73 171.924 1966.15 Q168.868 1961.54 168.868 1952.81 Q168.868 1944.06 171.924 1939.48 Q175.002 1934.87 180.813 1934.87 Z" fill="#000000" fill-rule="nonzero" fill-opacity="1" /><path clip-path="url(#clip740)" d="M198.22 1955.18 L210.697 1955.18 L210.697 1958.97 L198.22 1958.97 L198.22 1955.18 Z" fill="#000000" fill-rule="nonzero" fill-opacity="1" /><path clip-path="url(#clip740)" d="M218.891 1966.12 L226.53 1966.12 L226.53 1939.76 L218.22 1941.43 L218.22 1937.17 L226.484 1935.5 L231.159 1935.5 L231.159 1966.12 L238.798 1966.12 L238.798 1970.06 L218.891 1970.06 L218.891 1966.12 Z" fill="#000000" fill-rule="nonzero" fill-opacity="1" /><path clip-path="url(#clip740)" d="M249.053 1966.12 L256.692 1966.12 L256.692 1939.76 L248.382 1941.43 L248.382 1937.17 L256.645 1935.5 L261.321 1935.5 L261.321 1966.12 L268.96 1966.12 L268.96 1970.06 L249.053 1970.06 L249.053 1966.12 Z" fill="#000000" fill-rule="nonzero" fill-opacity="1" /><path clip-path="url(#clip740)" d="M275.65 1955.18 L288.127 1955.18 L288.127 1958.97 L275.65 1958.97 L275.65 1955.18 Z" fill="#000000" fill-rule="nonzero" fill-opacity="1" /><path clip-path="url(#clip740)" d="M305.511 1938.58 Q301.9 1938.58 300.071 1942.14 Q298.266 1945.68 298.266 1952.81 Q298.266 1959.92 300.071 1963.49 Q301.9 1967.03 305.511 1967.03 Q309.145 1967.03 310.951 1963.49 Q312.779 1959.92 312.779 1952.81 Q312.779 1945.68 310.951 1942.14 Q309.145 1938.58 305.511 1938.58 M305.511 1934.87 Q311.321 1934.87 314.377 1939.48 Q317.455 1944.06 317.455 1952.81 Q317.455 1961.54 314.377 1966.15 Q311.321 1970.73 305.511 1970.73 Q299.701 1970.73 296.622 1966.15 Q293.567 1961.54 293.567 1952.81 Q293.567 1944.06 296.622 1939.48 Q299.701 1934.87 305.511 1934.87 Z" fill="#000000" fill-rule="nonzero" fill-opacity="1" /><path clip-path="url(#clip740)" d="M326.483 1966.12 L334.122 1966.12 L334.122 1939.76 L325.812 1941.43 L325.812 1937.17 L334.076 1935.5 L338.751 1935.5 L338.751 1966.12 L346.39 1966.12 L346.39 1970.06 L326.483 1970.06 L326.483 1966.12 Z" fill="#000000" fill-rule="nonzero" fill-opacity="1" /><path clip-path="url(#clip740)" d="M807.708 1966.12 L824.027 1966.12 L824.027 1970.06 L802.083 1970.06 L802.083 1966.12 Q804.745 1963.37 809.328 1958.74 Q813.935 1954.09 815.116 1952.75 Q817.361 1950.22 818.24 1948.49 Q819.143 1946.73 819.143 1945.04 Q819.143 1942.28 817.199 1940.55 Q815.278 1938.81 812.176 1938.81 Q809.977 1938.81 807.523 1939.57 Q805.092 1940.34 802.315 1941.89 L802.315 1937.17 Q805.139 1936.03 807.592 1935.45 Q810.046 1934.87 812.083 1934.87 Q817.453 1934.87 820.648 1937.56 Q823.842 1940.25 823.842 1944.74 Q823.842 1946.87 823.032 1948.79 Q822.245 1950.68 820.139 1953.28 Q819.56 1953.95 816.458 1957.17 Q813.356 1960.36 807.708 1966.12 Z" fill="#000000" fill-rule="nonzero" fill-opacity="1" /><path clip-path="url(#clip740)" d="M843.842 1938.58 Q840.231 1938.58 838.402 1942.14 Q836.597 1945.68 836.597 1952.81 Q836.597 1959.92 838.402 1963.49 Q840.231 1967.03 843.842 1967.03 Q847.476 1967.03 849.282 1963.49 Q851.111 1959.92 851.111 1952.81 Q851.111 1945.68 849.282 1942.14 Q847.476 1938.58 843.842 1938.58 M843.842 1934.87 Q849.652 1934.87 852.708 1939.48 Q855.787 1944.06 855.787 1952.81 Q855.787 1961.54 852.708 1966.15 Q849.652 1970.73 843.842 1970.73 Q838.032 1970.73 834.953 1966.15 Q831.898 1961.54 831.898 1952.81 Q831.898 1944.06 834.953 1939.48 Q838.032 1934.87 843.842 1934.87 Z" fill="#000000" fill-rule="nonzero" fill-opacity="1" /><path clip-path="url(#clip740)" d="M864.814 1966.12 L872.453 1966.12 L872.453 1939.76 L864.143 1941.43 L864.143 1937.17 L872.407 1935.5 L877.083 1935.5 L877.083 1966.12 L884.722 1966.12 L884.722 1970.06 L864.814 1970.06 L864.814 1966.12 Z" fill="#000000" fill-rule="nonzero" fill-opacity="1" /><path clip-path="url(#clip740)" d="M894.976 1966.12 L902.615 1966.12 L902.615 1939.76 L894.305 1941.43 L894.305 1937.17 L902.569 1935.5 L907.245 1935.5 L907.245 1966.12 L914.883 1966.12 L914.883 1970.06 L894.976 1970.06 L894.976 1966.12 Z" fill="#000000" fill-rule="nonzero" fill-opacity="1" /><path clip-path="url(#clip740)" d="M921.573 1955.18 L934.05 1955.18 L934.05 1958.97 L921.573 1958.97 L921.573 1955.18 Z" fill="#000000" fill-rule="nonzero" fill-opacity="1" /><path clip-path="url(#clip740)" d="M951.434 1938.58 Q947.823 1938.58 945.994 1942.14 Q944.189 1945.68 944.189 1952.81 Q944.189 1959.92 945.994 1963.49 Q947.823 1967.03 951.434 1967.03 Q955.068 1967.03 956.874 1963.49 Q958.703 1959.92 958.703 1952.81 Q958.703 1945.68 956.874 1942.14 Q955.068 1938.58 951.434 1938.58 M951.434 1934.87 Q957.244 1934.87 960.3 1939.48 Q963.379 1944.06 963.379 1952.81 Q963.379 1961.54 960.3 1966.15 Q957.244 1970.73 951.434 1970.73 Q945.624 1970.73 942.545 1966.15 Q939.49 1961.54 939.49 1952.81 Q939.49 1944.06 942.545 1939.48 Q945.624 1934.87 951.434 1934.87 Z" fill="#000000" fill-rule="nonzero" fill-opacity="1" /><path clip-path="url(#clip740)" d="M975.624 1966.12 L991.943 1966.12 L991.943 1970.06 L969.999 1970.06 L969.999 1966.12 Q972.661 1963.37 977.244 1958.74 Q981.851 1954.09 983.031 1952.75 Q985.277 1950.22 986.156 1948.49 Q987.059 1946.73 987.059 1945.04 Q987.059 1942.28 985.115 1940.55 Q983.193 1938.81 980.091 1938.81 Q977.892 1938.81 975.439 1939.57 Q973.008 1940.34 970.23 1941.89 L970.23 1937.17 Q973.054 1936.03 975.508 1935.45 Q977.962 1934.87 979.999 1934.87 Q985.369 1934.87 988.564 1937.56 Q991.758 1940.25 991.758 1944.74 Q991.758 1946.87 990.948 1948.79 Q990.161 1950.68 988.054 1953.28 Q987.476 1953.95 984.374 1957.17 Q981.272 1960.36 975.624 1966.12 Z" fill="#000000" fill-rule="nonzero" fill-opacity="1" /><path clip-path="url(#clip740)" d="M999.003 1955.18 L1011.48 1955.18 L1011.48 1958.97 L999.003 1958.97 L999.003 1955.18 Z" fill="#000000" fill-rule="nonzero" fill-opacity="1" /><path clip-path="url(#clip740)" d="M1028.86 1938.58 Q1025.25 1938.58 1023.42 1942.14 Q1021.62 1945.68 1021.62 1952.81 Q1021.62 1959.92 1023.42 1963.49 Q1025.25 1967.03 1028.86 1967.03 Q1032.5 1967.03 1034.3 1963.49 Q1036.13 1959.92 1036.13 1952.81 Q1036.13 1945.68 1034.3 1942.14 Q1032.5 1938.58 1028.86 1938.58 M1028.86 1934.87 Q1034.67 1934.87 1037.73 1939.48 Q1040.81 1944.06 1040.81 1952.81 Q1040.81 1961.54 1037.73 1966.15 Q1034.67 1970.73 1028.86 1970.73 Q1023.05 1970.73 1019.98 1966.15 Q1016.92 1961.54 1016.92 1952.81 Q1016.92 1944.06 1019.98 1939.48 Q1023.05 1934.87 1028.86 1934.87 Z" fill="#000000" fill-rule="nonzero" fill-opacity="1" /><path clip-path="url(#clip740)" d="M1049.84 1966.12 L1057.48 1966.12 L1057.48 1939.76 L1049.17 1941.43 L1049.17 1937.17 L1057.43 1935.5 L1062.1 1935.5 L1062.1 1966.12 L1069.74 1966.12 L1069.74 1970.06 L1049.84 1970.06 L1049.84 1966.12 Z" fill="#000000" fill-rule="nonzero" fill-opacity="1" /><path clip-path="url(#clip740)" d="M1507.47 1966.12 L1523.79 1966.12 L1523.79 1970.06 L1501.85 1970.06 L1501.85 1966.12 Q1504.51 1963.37 1509.09 1958.74 Q1513.7 1954.09 1514.88 1952.75 Q1517.13 1950.22 1518.01 1948.49 Q1518.91 1946.73 1518.91 1945.04 Q1518.91 1942.28 1516.96 1940.55 Q1515.04 1938.81 1511.94 1938.81 Q1509.74 1938.81 1507.29 1939.57 Q1504.86 1940.34 1502.08 1941.89 L1502.08 1937.17 Q1504.9 1936.03 1507.36 1935.45 Q1509.81 1934.87 1511.85 1934.87 Q1517.22 1934.87 1520.41 1937.56 Q1523.61 1940.25 1523.61 1944.74 Q1523.61 1946.87 1522.8 1948.79 Q1522.01 1950.68 1519.9 1953.28 Q1519.33 1953.95 1516.22 1957.17 Q1513.12 1960.36 1507.47 1966.12 Z" fill="#000000" fill-rule="nonzero" fill-opacity="1" /><path clip-path="url(#clip740)" d="M1543.61 1938.58 Q1540 1938.58 1538.17 1942.14 Q1536.36 1945.68 1536.36 1952.81 Q1536.36 1959.92 1538.17 1963.49 Q1540 1967.03 1543.61 1967.03 Q1547.24 1967.03 1549.05 1963.49 Q1550.88 1959.92 1550.88 1952.81 Q1550.88 1945.68 1549.05 1942.14 Q1547.24 1938.58 1543.61 1938.58 M1543.61 1934.87 Q1549.42 1934.87 1552.47 1939.48 Q1555.55 1944.06 1555.55 1952.81 Q1555.55 1961.54 1552.47 1966.15 Q1549.42 1970.73 1543.61 1970.73 Q1537.8 1970.73 1534.72 1966.15 Q1531.66 1961.54 1531.66 1952.81 Q1531.66 1944.06 1534.72 1939.48 Q1537.8 1934.87 1543.61 1934.87 Z" fill="#000000" fill-rule="nonzero" fill-opacity="1" /><path clip-path="url(#clip740)" d="M1564.58 1966.12 L1572.22 1966.12 L1572.22 1939.76 L1563.91 1941.43 L1563.91 1937.17 L1572.17 1935.5 L1576.85 1935.5 L1576.85 1966.12 L1584.49 1966.12 L1584.49 1970.06 L1564.58 1970.06 L1564.58 1966.12 Z" fill="#000000" fill-rule="nonzero" fill-opacity="1" /><path clip-path="url(#clip740)" d="M1594.74 1966.12 L1602.38 1966.12 L1602.38 1939.76 L1594.07 1941.43 L1594.07 1937.17 L1602.33 1935.5 L1607.01 1935.5 L1607.01 1966.12 L1614.65 1966.12 L1614.65 1970.06 L1594.74 1970.06 L1594.74 1966.12 Z" fill="#000000" fill-rule="nonzero" fill-opacity="1" /><path clip-path="url(#clip740)" d="M1621.34 1955.18 L1633.82 1955.18 L1633.82 1958.97 L1621.34 1958.97 L1621.34 1955.18 Z" fill="#000000" fill-rule="nonzero" fill-opacity="1" /><path clip-path="url(#clip740)" d="M1651.2 1938.58 Q1647.59 1938.58 1645.76 1942.14 Q1643.95 1945.68 1643.95 1952.81 Q1643.95 1959.92 1645.76 1963.49 Q1647.59 1967.03 1651.2 1967.03 Q1654.83 1967.03 1656.64 1963.49 Q1658.47 1959.92 1658.47 1952.81 Q1658.47 1945.68 1656.64 1942.14 Q1654.83 1938.58 1651.2 1938.58 M1651.2 1934.87 Q1657.01 1934.87 1660.07 1939.48 Q1663.14 1944.06 1663.14 1952.81 Q1663.14 1961.54 1660.07 1966.15 Q1657.01 1970.73 1651.2 1970.73 Q1645.39 1970.73 1642.31 1966.15 Q1639.26 1961.54 1639.26 1952.81 Q1639.26 1944.06 1642.31 1939.48 Q1645.39 1934.87 1651.2 1934.87 Z" fill="#000000" fill-rule="nonzero" fill-opacity="1" /><path clip-path="url(#clip740)" d="M1671.41 1935.5 L1689.76 1935.5 L1689.76 1939.44 L1675.69 1939.44 L1675.69 1947.91 Q1676.71 1947.56 1677.73 1947.4 Q1678.75 1947.21 1679.76 1947.21 Q1685.55 1947.21 1688.93 1950.38 Q1692.31 1953.56 1692.31 1958.97 Q1692.31 1964.55 1688.84 1967.65 Q1685.37 1970.73 1679.05 1970.73 Q1676.87 1970.73 1674.6 1970.36 Q1672.36 1969.99 1669.95 1969.25 L1669.95 1964.55 Q1672.03 1965.68 1674.26 1966.24 Q1676.48 1966.8 1678.95 1966.8 Q1682.96 1966.8 1685.3 1964.69 Q1687.64 1962.58 1687.64 1958.97 Q1687.64 1955.36 1685.3 1953.25 Q1682.96 1951.15 1678.95 1951.15 Q1677.08 1951.15 1675.2 1951.56 Q1673.35 1951.98 1671.41 1952.86 L1671.41 1935.5 Z" fill="#000000" fill-rule="nonzero" fill-opacity="1" /><path clip-path="url(#clip740)" d="M1698.77 1955.18 L1711.25 1955.18 L1711.25 1958.97 L1698.77 1958.97 L1698.77 1955.18 Z" fill="#000000" fill-rule="nonzero" fill-opacity="1" /><path clip-path="url(#clip740)" d="M1728.63 1938.58 Q1725.02 1938.58 1723.19 1942.14 Q1721.38 1945.68 1721.38 1952.81 Q1721.38 1959.92 1723.19 1963.49 Q1725.02 1967.03 1728.63 1967.03 Q1732.26 1967.03 1734.07 1963.49 Q1735.9 1959.92 1735.9 1952.81 Q1735.9 1945.68 1734.07 1942.14 Q1732.26 1938.58 1728.63 1938.58 M1728.63 1934.87 Q1734.44 1934.87 1737.5 1939.48 Q1740.57 1944.06 1740.57 1952.81 Q1740.57 1961.54 1737.5 1966.15 Q1734.44 1970.73 1728.63 1970.73 Q1722.82 1970.73 1719.74 1966.15 Q1716.69 1961.54 1716.69 1952.81 Q1716.69 1944.06 1719.74 1939.48 Q1722.82 1934.87 1728.63 1934.87 Z" fill="#000000" fill-rule="nonzero" fill-opacity="1" /><path clip-path="url(#clip740)" d="M1749.6 1966.12 L1757.24 1966.12 L1757.24 1939.76 L1748.93 1941.43 L1748.93 1937.17 L1757.19 1935.5 L1761.87 1935.5 L1761.87 1966.12 L1769.51 1966.12 L1769.51 1970.06 L1749.6 1970.06 L1749.6 1966.12 Z" fill="#000000" fill-rule="nonzero" fill-opacity="1" /><path clip-path="url(#clip740)" d="M2230.83 1966.12 L2247.15 1966.12 L2247.15 1970.06 L2225.2 1970.06 L2225.2 1966.12 Q2227.86 1963.37 2232.45 1958.74 Q2237.05 1954.09 2238.23 1952.75 Q2240.48 1950.22 2241.36 1948.49 Q2242.26 1946.73 2242.26 1945.04 Q2242.26 1942.28 2240.32 1940.55 Q2238.4 1938.81 2235.29 1938.81 Q2233.1 1938.81 2230.64 1939.57 Q2228.21 1940.34 2225.43 1941.89 L2225.43 1937.17 Q2228.26 1936.03 2230.71 1935.45 Q2233.17 1934.87 2235.2 1934.87 Q2240.57 1934.87 2243.77 1937.56 Q2246.96 1940.25 2246.96 1944.74 Q2246.96 1946.87 2246.15 1948.79 Q2245.36 1950.68 2243.26 1953.28 Q2242.68 1953.95 2239.58 1957.17 Q2236.48 1960.36 2230.83 1966.12 Z" fill="#000000" fill-rule="nonzero" fill-opacity="1" /><path clip-path="url(#clip740)" d="M2266.96 1938.58 Q2263.35 1938.58 2261.52 1942.14 Q2259.72 1945.68 2259.72 1952.81 Q2259.72 1959.92 2261.52 1963.49 Q2263.35 1967.03 2266.96 1967.03 Q2270.6 1967.03 2272.4 1963.49 Q2274.23 1959.92 2274.23 1952.81 Q2274.23 1945.68 2272.4 1942.14 Q2270.6 1938.58 2266.96 1938.58 M2266.96 1934.87 Q2272.77 1934.87 2275.83 1939.48 Q2278.91 1944.06 2278.91 1952.81 Q2278.91 1961.54 2275.83 1966.15 Q2272.77 1970.73 2266.96 1970.73 Q2261.15 1970.73 2258.07 1966.15 Q2255.02 1961.54 2255.02 1952.81 Q2255.02 1944.06 2258.07 1939.48 Q2261.15 1934.87 2266.96 1934.87 Z" fill="#000000" fill-rule="nonzero" fill-opacity="1" /><path clip-path="url(#clip740)" d="M2287.93 1966.12 L2295.57 1966.12 L2295.57 1939.76 L2287.26 1941.43 L2287.26 1937.17 L2295.53 1935.5 L2300.2 1935.5 L2300.2 1966.12 L2307.84 1966.12 L2307.84 1970.06 L2287.93 1970.06 L2287.93 1966.12 Z" fill="#000000" fill-rule="nonzero" fill-opacity="1" /><path clip-path="url(#clip740)" d="M2318.1 1966.12 L2325.73 1966.12 L2325.73 1939.76 L2317.42 1941.43 L2317.42 1937.17 L2325.69 1935.5 L2330.36 1935.5 L2330.36 1966.12 L2338 1966.12 L2338 1970.06 L2318.1 1970.06 L2318.1 1966.12 Z" fill="#000000" fill-rule="nonzero" fill-opacity="1" /><path clip-path="url(#clip740)" d="M2344.69 1955.18 L2357.17 1955.18 L2357.17 1958.97 L2344.69 1958.97 L2344.69 1955.18 Z" fill="#000000" fill-rule="nonzero" fill-opacity="1" /><path clip-path="url(#clip740)" d="M2374.55 1938.58 Q2370.94 1938.58 2369.11 1942.14 Q2367.31 1945.68 2367.31 1952.81 Q2367.31 1959.92 2369.11 1963.49 Q2370.94 1967.03 2374.55 1967.03 Q2378.19 1967.03 2379.99 1963.49 Q2381.82 1959.92 2381.82 1952.81 Q2381.82 1945.68 2379.99 1942.14 Q2378.19 1938.58 2374.55 1938.58 M2374.55 1934.87 Q2380.36 1934.87 2383.42 1939.48 Q2386.5 1944.06 2386.5 1952.81 Q2386.5 1961.54 2383.42 1966.15 Q2380.36 1970.73 2374.55 1970.73 Q2368.74 1970.73 2365.66 1966.15 Q2362.61 1961.54 2362.61 1952.81 Q2362.61 1944.06 2365.66 1939.48 Q2368.74 1934.87 2374.55 1934.87 Z" fill="#000000" fill-rule="nonzero" fill-opacity="1" /><path clip-path="url(#clip740)" d="M2404.72 1953.65 Q2401.38 1953.65 2399.46 1955.43 Q2397.56 1957.21 2397.56 1960.34 Q2397.56 1963.46 2399.46 1965.25 Q2401.38 1967.03 2404.72 1967.03 Q2408.05 1967.03 2409.97 1965.25 Q2411.89 1963.44 2411.89 1960.34 Q2411.89 1957.21 2409.97 1955.43 Q2408.07 1953.65 2404.72 1953.65 M2400.04 1951.66 Q2397.03 1950.92 2395.34 1948.86 Q2393.67 1946.8 2393.67 1943.83 Q2393.67 1939.69 2396.61 1937.28 Q2399.58 1934.87 2404.72 1934.87 Q2409.88 1934.87 2412.82 1937.28 Q2415.76 1939.69 2415.76 1943.83 Q2415.76 1946.8 2414.07 1948.86 Q2412.4 1950.92 2409.41 1951.66 Q2412.79 1952.44 2414.67 1954.74 Q2416.57 1957.03 2416.57 1960.34 Q2416.57 1965.36 2413.49 1968.05 Q2410.43 1970.73 2404.72 1970.73 Q2399 1970.73 2395.92 1968.05 Q2392.86 1965.36 2392.86 1960.34 Q2392.86 1957.03 2394.76 1954.74 Q2396.66 1952.44 2400.04 1951.66 M2398.33 1944.27 Q2398.33 1946.96 2399.99 1948.46 Q2401.68 1949.97 2404.72 1949.97 Q2407.72 1949.97 2409.41 1948.46 Q2411.13 1946.96 2411.13 1944.27 Q2411.13 1941.59 2409.41 1940.08 Q2407.72 1938.58 2404.72 1938.58 Q2401.68 1938.58 2399.99 1940.08 Q2398.33 1941.59 2398.33 1944.27 Z" fill="#000000" fill-rule="nonzero" fill-opacity="1" /><path clip-path="url(#clip740)" d="M2422.12 1955.18 L2434.6 1955.18 L2434.6 1958.97 L2422.12 1958.97 L2422.12 1955.18 Z" fill="#000000" fill-rule="nonzero" fill-opacity="1" /><path clip-path="url(#clip740)" d="M2451.98 1938.58 Q2448.37 1938.58 2446.54 1942.14 Q2444.74 1945.68 2444.74 1952.81 Q2444.74 1959.92 2446.54 1963.49 Q2448.37 1967.03 2451.98 1967.03 Q2455.62 1967.03 2457.42 1963.49 Q2459.25 1959.92 2459.25 1952.81 Q2459.25 1945.68 2457.42 1942.14 Q2455.62 1938.58 2451.98 1938.58 M2451.98 1934.87 Q2457.79 1934.87 2460.85 1939.48 Q2463.93 1944.06 2463.93 1952.81 Q2463.93 1961.54 2460.85 1966.15 Q2457.79 1970.73 2451.98 1970.73 Q2446.17 1970.73 2443.09 1966.15 Q2440.04 1961.54 2440.04 1952.81 Q2440.04 1944.06 2443.09 1939.48 Q2446.17 1934.87 2451.98 1934.87 Z" fill="#000000" fill-rule="nonzero" fill-opacity="1" /><path clip-path="url(#clip740)" d="M2472.96 1966.12 L2480.59 1966.12 L2480.59 1939.76 L2472.28 1941.43 L2472.28 1937.17 L2480.55 1935.5 L2485.22 1935.5 L2485.22 1966.12 L2492.86 1966.12 L2492.86 1970.06 L2472.96 1970.06 L2472.96 1966.12 Z" fill="#000000" fill-rule="nonzero" fill-opacity="1" /><path clip-path="url(#clip740)" d="M2954.18 1966.12 L2970.5 1966.12 L2970.5 1970.06 L2948.56 1970.06 L2948.56 1966.12 Q2951.22 1963.37 2955.8 1958.74 Q2960.41 1954.09 2961.59 1952.75 Q2963.83 1950.22 2964.71 1948.49 Q2965.62 1946.73 2965.62 1945.04 Q2965.62 1942.28 2963.67 1940.55 Q2961.75 1938.81 2958.65 1938.81 Q2956.45 1938.81 2954 1939.57 Q2951.57 1940.34 2948.79 1941.89 L2948.79 1937.17 Q2951.61 1936.03 2954.07 1935.45 Q2956.52 1934.87 2958.56 1934.87 Q2963.93 1934.87 2967.12 1937.56 Q2970.32 1940.25 2970.32 1944.74 Q2970.32 1946.87 2969.5 1948.79 Q2968.72 1950.68 2966.61 1953.28 Q2966.03 1953.95 2962.93 1957.17 Q2959.83 1960.36 2954.18 1966.12 Z" fill="#000000" fill-rule="nonzero" fill-opacity="1" /><path clip-path="url(#clip740)" d="M2990.31 1938.58 Q2986.7 1938.58 2984.88 1942.14 Q2983.07 1945.68 2983.07 1952.81 Q2983.07 1959.92 2984.88 1963.49 Q2986.7 1967.03 2990.31 1967.03 Q2993.95 1967.03 2995.75 1963.49 Q2997.58 1959.92 2997.58 1952.81 Q2997.58 1945.68 2995.75 1942.14 Q2993.95 1938.58 2990.31 1938.58 M2990.31 1934.87 Q2996.13 1934.87 2999.18 1939.48 Q3002.26 1944.06 3002.26 1952.81 Q3002.26 1961.54 2999.18 1966.15 Q2996.13 1970.73 2990.31 1970.73 Q2984.5 1970.73 2981.43 1966.15 Q2978.37 1961.54 2978.37 1952.81 Q2978.37 1944.06 2981.43 1939.48 Q2984.5 1934.87 2990.31 1934.87 Z" fill="#000000" fill-rule="nonzero" fill-opacity="1" /><path clip-path="url(#clip740)" d="M3011.29 1966.12 L3018.93 1966.12 L3018.93 1939.76 L3010.62 1941.43 L3010.62 1937.17 L3018.88 1935.5 L3023.56 1935.5 L3023.56 1966.12 L3031.19 1966.12 L3031.19 1970.06 L3011.29 1970.06 L3011.29 1966.12 Z" fill="#000000" fill-rule="nonzero" fill-opacity="1" /><path clip-path="url(#clip740)" d="M3041.45 1966.12 L3049.09 1966.12 L3049.09 1939.76 L3040.78 1941.43 L3040.78 1937.17 L3049.04 1935.5 L3053.72 1935.5 L3053.72 1966.12 L3061.36 1966.12 L3061.36 1970.06 L3041.45 1970.06 L3041.45 1966.12 Z" fill="#000000" fill-rule="nonzero" fill-opacity="1" /><path clip-path="url(#clip740)" d="M3068.05 1955.18 L3080.52 1955.18 L3080.52 1958.97 L3068.05 1958.97 L3068.05 1955.18 Z" fill="#000000" fill-rule="nonzero" fill-opacity="1" /><path clip-path="url(#clip740)" d="M3088.72 1966.12 L3096.36 1966.12 L3096.36 1939.76 L3088.05 1941.43 L3088.05 1937.17 L3096.31 1935.5 L3100.99 1935.5 L3100.99 1966.12 L3108.62 1966.12 L3108.62 1970.06 L3088.72 1970.06 L3088.72 1966.12 Z" fill="#000000" fill-rule="nonzero" fill-opacity="1" /><path clip-path="url(#clip740)" d="M3118.88 1966.12 L3126.52 1966.12 L3126.52 1939.76 L3118.21 1941.43 L3118.21 1937.17 L3126.47 1935.5 L3131.15 1935.5 L3131.15 1966.12 L3138.79 1966.12 L3138.79 1970.06 L3118.88 1970.06 L3118.88 1966.12 Z" fill="#000000" fill-rule="nonzero" fill-opacity="1" /><path clip-path="url(#clip740)" d="M3145.48 1955.18 L3157.95 1955.18 L3157.95 1958.97 L3145.48 1958.97 L3145.48 1955.18 Z" fill="#000000" fill-rule="nonzero" fill-opacity="1" /><path clip-path="url(#clip740)" d="M3175.34 1938.58 Q3171.73 1938.58 3169.9 1942.14 Q3168.09 1945.68 3168.09 1952.81 Q3168.09 1959.92 3169.9 1963.49 Q3171.73 1967.03 3175.34 1967.03 Q3178.97 1967.03 3180.78 1963.49 Q3182.61 1959.92 3182.61 1952.81 Q3182.61 1945.68 3180.78 1942.14 Q3178.97 1938.58 3175.34 1938.58 M3175.34 1934.87 Q3181.15 1934.87 3184.2 1939.48 Q3187.28 1944.06 3187.28 1952.81 Q3187.28 1961.54 3184.2 1966.15 Q3181.15 1970.73 3175.34 1970.73 Q3169.53 1970.73 3166.45 1966.15 Q3163.39 1961.54 3163.39 1952.81 Q3163.39 1944.06 3166.45 1939.48 Q3169.53 1934.87 3175.34 1934.87 Z" fill="#000000" fill-rule="nonzero" fill-opacity="1" /><path clip-path="url(#clip740)" d="M3196.31 1966.12 L3203.95 1966.12 L3203.95 1939.76 L3195.64 1941.43 L3195.64 1937.17 L3203.9 1935.5 L3208.58 1935.5 L3208.58 1966.12 L3216.22 1966.12 L3216.22 1970.06 L3196.31 1970.06 L3196.31 1966.12 Z" fill="#000000" fill-rule="nonzero" fill-opacity="1" /><path clip-path="url(#clip740)" d="M1553.62 2010.6 L1593.82 2010.6 L1593.82 2016.01 L1576.96 2016.01 L1576.96 2058.12 L1570.49 2058.12 L1570.49 2016.01 L1553.62 2016.01 L1553.62 2010.6 Z" fill="#000000" fill-rule="nonzero" fill-opacity="1" /><path clip-path="url(#clip740)" d="M1597.77 2022.48 L1603.63 2022.48 L1603.63 2058.12 L1597.77 2058.12 L1597.77 2022.48 M1597.77 2008.6 L1603.63 2008.6 L1603.63 2016.01 L1597.77 2016.01 L1597.77 2008.6 Z" fill="#000000" fill-rule="nonzero" fill-opacity="1" /><path clip-path="url(#clip740)" d="M1643.64 2029.32 Q1645.83 2025.37 1648.89 2023.49 Q1651.94 2021.62 1656.08 2021.62 Q1661.65 2021.62 1664.67 2025.53 Q1667.7 2029.41 1667.7 2036.61 L1667.7 2058.12 L1661.81 2058.12 L1661.81 2036.8 Q1661.81 2031.67 1660 2029.19 Q1658.18 2026.71 1654.46 2026.71 Q1649.91 2026.71 1647.26 2029.73 Q1644.62 2032.76 1644.62 2037.98 L1644.62 2058.12 L1638.73 2058.12 L1638.73 2036.8 Q1638.73 2031.64 1636.92 2029.19 Q1635.11 2026.71 1631.32 2026.71 Q1626.83 2026.71 1624.19 2029.76 Q1621.55 2032.79 1621.55 2037.98 L1621.55 2058.12 L1615.66 2058.12 L1615.66 2022.48 L1621.55 2022.48 L1621.55 2028.01 Q1623.55 2024.74 1626.35 2023.18 Q1629.15 2021.62 1633.01 2021.62 Q1636.89 2021.62 1639.59 2023.59 Q1642.33 2025.56 1643.64 2029.32 Z" fill="#000000" fill-rule="nonzero" fill-opacity="1" /><path clip-path="url(#clip740)" d="M1709.87 2038.84 L1709.87 2041.7 L1682.94 2041.7 Q1683.33 2047.75 1686.57 2050.93 Q1689.85 2054.08 1695.68 2054.08 Q1699.05 2054.08 1702.2 2053.25 Q1705.38 2052.43 1708.5 2050.77 L1708.5 2056.31 Q1705.35 2057.65 1702.04 2058.35 Q1698.73 2059.05 1695.33 2059.05 Q1686.8 2059.05 1681.8 2054.08 Q1676.83 2049.12 1676.83 2040.65 Q1676.83 2031.9 1681.54 2026.77 Q1686.29 2021.62 1694.31 2021.62 Q1701.5 2021.62 1705.67 2026.26 Q1709.87 2030.88 1709.87 2038.84 M1704.01 2037.12 Q1703.95 2032.31 1701.31 2029.45 Q1698.7 2026.58 1694.37 2026.58 Q1689.47 2026.58 1686.51 2029.35 Q1683.58 2032.12 1683.14 2037.15 L1704.01 2037.12 Z" fill="#000000" fill-rule="nonzero" fill-opacity="1" /><polyline clip-path="url(#clip742)" style="stroke:#000000; stroke-linecap:round; stroke-linejoin:round; stroke-width:2; stroke-opacity:0.1; fill:none" points="110.74,1848.79 3152.76,1848.79 "/>
<polyline clip-path="url(#clip742)" style="stroke:#000000; stroke-linecap:round; stroke-linejoin:round; stroke-width:2; stroke-opacity:0.1; fill:none" points="110.74,1330.95 3152.76,1330.95 "/>
<polyline clip-path="url(#clip742)" style="stroke:#000000; stroke-linecap:round; stroke-linejoin:round; stroke-width:2; stroke-opacity:0.1; fill:none" points="110.74,813.111 3152.76,813.111 "/>
<polyline clip-path="url(#clip742)" style="stroke:#000000; stroke-linecap:round; stroke-linejoin:round; stroke-width:2; stroke-opacity:0.1; fill:none" points="110.74,295.272 3152.76,295.272 "/>
<polyline clip-path="url(#clip740)" style="stroke:#000000; stroke-linecap:round; stroke-linejoin:round; stroke-width:4; stroke-opacity:1; fill:none" points="110.74,1901.26 110.74,47.2441 "/>
<polyline clip-path="url(#clip740)" style="stroke:#000000; stroke-linecap:round; stroke-linejoin:round; stroke-width:4; stroke-opacity:1; fill:none" points="110.74,1848.79 129.638,1848.79 "/>
<polyline clip-path="url(#clip740)" style="stroke:#000000; stroke-linecap:round; stroke-linejoin:round; stroke-width:4; stroke-opacity:1; fill:none" points="110.74,1330.95 129.638,1330.95 "/>
<polyline clip-path="url(#clip740)" style="stroke:#000000; stroke-linecap:round; stroke-linejoin:round; stroke-width:4; stroke-opacity:1; fill:none" points="110.74,813.111 129.638,813.111 "/>
<polyline clip-path="url(#clip740)" style="stroke:#000000; stroke-linecap:round; stroke-linejoin:round; stroke-width:4; stroke-opacity:1; fill:none" points="110.74,295.272 129.638,295.272 "/>
<path clip-path="url(#clip740)" d="M5.56454 1834.59 Q1.95345 1834.59 0.124752 1838.15 Q-1.68079 1841.69 -1.68079 1848.82 Q-1.68079 1855.93 0.124752 1859.49 Q1.95345 1863.04 5.56454 1863.04 Q9.19878 1863.04 11.0043 1859.49 Q12.833 1855.93 12.833 1848.82 Q12.833 1841.69 11.0043 1838.15 Q9.19878 1834.59 5.56454 1834.59 M5.56454 1830.88 Q11.3747 1830.88 14.4302 1835.49 Q17.5089 1840.07 17.5089 1848.82 Q17.5089 1857.55 14.4302 1862.16 Q11.3747 1866.74 5.56454 1866.74 Q-0.245616 1866.74 -3.3243 1862.16 Q-6.37984 1857.55 -6.37984 1848.82 Q-6.37984 1840.07 -3.3243 1835.49 Q-0.245616 1830.88 5.56454 1830.88 Z" fill="#000000" fill-rule="nonzero" fill-opacity="1" /><path clip-path="url(#clip740)" d="M25.7265 1860.19 L30.6107 1860.19 L30.6107 1866.07 L25.7265 1866.07 L25.7265 1860.19 Z" fill="#000000" fill-rule="nonzero" fill-opacity="1" /><path clip-path="url(#clip740)" d="M50.7958 1834.59 Q47.1847 1834.59 45.356 1838.15 Q43.5504 1841.69 43.5504 1848.82 Q43.5504 1855.93 45.356 1859.49 Q47.1847 1863.04 50.7958 1863.04 Q54.43 1863.04 56.2356 1859.49 Q58.0643 1855.93 58.0643 1848.82 Q58.0643 1841.69 56.2356 1838.15 Q54.43 1834.59 50.7958 1834.59 M50.7958 1830.88 Q56.6059 1830.88 59.6615 1835.49 Q62.7402 1840.07 62.7402 1848.82 Q62.7402 1857.55 59.6615 1862.16 Q56.6059 1866.74 50.7958 1866.74 Q44.9856 1866.74 41.9069 1862.16 Q38.8514 1857.55 38.8514 1848.82 Q38.8514 1840.07 41.9069 1835.49 Q44.9856 1830.88 50.7958 1830.88 Z" fill="#000000" fill-rule="nonzero" fill-opacity="1" /><path clip-path="url(#clip740)" d="M6.79138 1316.75 Q3.18029 1316.75 1.3516 1320.31 Q-0.453948 1323.85 -0.453948 1330.98 Q-0.453948 1338.09 1.3516 1341.66 Q3.18029 1345.2 6.79138 1345.2 Q10.4256 1345.2 12.2312 1341.66 Q14.0599 1338.09 14.0599 1330.98 Q14.0599 1323.85 12.2312 1320.31 Q10.4256 1316.75 6.79138 1316.75 M6.79138 1313.04 Q12.6015 1313.04 15.6571 1317.65 Q18.7358 1322.23 18.7358 1330.98 Q18.7358 1339.71 15.6571 1344.32 Q12.6015 1348.9 6.79138 1348.9 Q0.981229 1348.9 -2.09746 1344.32 Q-5.153 1339.71 -5.153 1330.98 Q-5.153 1322.23 -2.09746 1317.65 Q0.981229 1313.04 6.79138 1313.04 Z" fill="#000000" fill-rule="nonzero" fill-opacity="1" /><path clip-path="url(#clip740)" d="M26.9533 1342.35 L31.8375 1342.35 L31.8375 1348.23 L26.9533 1348.23 L26.9533 1342.35 Z" fill="#000000" fill-rule="nonzero" fill-opacity="1" /><path clip-path="url(#clip740)" d="M42.8329 1344.29 L50.4717 1344.29 L50.4717 1317.93 L42.1616 1319.6 L42.1616 1315.34 L50.4254 1313.67 L55.1013 1313.67 L55.1013 1344.29 L62.7402 1344.29 L62.7402 1348.23 L42.8329 1348.23 L42.8329 1344.29 Z" fill="#000000" fill-rule="nonzero" fill-opacity="1" /><path clip-path="url(#clip740)" d="M7.16175 798.909 Q3.55066 798.909 1.72197 802.474 Q-0.08358 806.016 -0.08358 813.146 Q-0.08358 820.252 1.72197 823.817 Q3.55066 827.358 7.16175 827.358 Q10.796 827.358 12.6015 823.817 Q14.4302 820.252 14.4302 813.146 Q14.4302 806.016 12.6015 802.474 Q10.796 798.909 7.16175 798.909 M7.16175 795.206 Q12.9719 795.206 16.0274 799.812 Q19.1061 804.396 19.1061 813.146 Q19.1061 821.872 16.0274 826.479 Q12.9719 831.062 7.16175 831.062 Q1.3516 831.062 -1.72709 826.479 Q-4.78263 821.872 -4.78263 813.146 Q-4.78263 804.396 -1.72709 799.812 Q1.3516 795.206 7.16175 795.206 Z" fill="#000000" fill-rule="nonzero" fill-opacity="1" /><path clip-path="url(#clip740)" d="M27.3237 824.511 L32.2079 824.511 L32.2079 830.391 L27.3237 830.391 L27.3237 824.511 Z" fill="#000000" fill-rule="nonzero" fill-opacity="1" /><path clip-path="url(#clip740)" d="M46.4208 826.456 L62.7402 826.456 L62.7402 830.391 L40.7958 830.391 L40.7958 826.456 Q43.4579 823.701 48.0412 819.071 Q52.6476 814.419 53.8282 813.076 Q56.0735 810.553 56.9532 808.817 Q57.8559 807.058 57.8559 805.368 Q57.8559 802.613 55.9115 800.877 Q53.9902 799.141 50.8884 799.141 Q48.6893 799.141 46.2356 799.905 Q43.8051 800.669 41.0273 802.22 L41.0273 797.497 Q43.8514 796.363 46.3051 795.784 Q48.7588 795.206 50.7958 795.206 Q56.1661 795.206 59.3605 797.891 Q62.555 800.576 62.555 805.067 Q62.555 807.196 61.7448 809.118 Q60.9578 811.016 58.8513 813.608 Q58.2726 814.28 55.1708 817.497 Q52.0689 820.692 46.4208 826.456 Z" fill="#000000" fill-rule="nonzero" fill-opacity="1" /><path clip-path="url(#clip740)" d="M6.21268 281.071 Q2.60159 281.071 0.772897 284.636 Q-1.03265 288.177 -1.03265 295.307 Q-1.03265 302.413 0.772897 305.978 Q2.60159 309.52 6.21268 309.52 Q9.84692 309.52 11.6525 305.978 Q13.4812 302.413 13.4812 295.307 Q13.4812 288.177 11.6525 284.636 Q9.84692 281.071 6.21268 281.071 M6.21268 277.367 Q12.0228 277.367 15.0784 281.974 Q18.1571 286.557 18.1571 295.307 Q18.1571 304.034 15.0784 308.64 Q12.0228 313.224 6.21268 313.224 Q0.402529 313.224 -2.67616 308.64 Q-5.7317 304.034 -5.7317 295.307 Q-5.7317 286.557 -2.67616 281.974 Q0.402529 277.367 6.21268 277.367 Z" fill="#000000" fill-rule="nonzero" fill-opacity="1" /><path clip-path="url(#clip740)" d="M26.3746 306.673 L31.2588 306.673 L31.2588 312.552 L26.3746 312.552 L26.3746 306.673 Z" fill="#000000" fill-rule="nonzero" fill-opacity="1" /><path clip-path="url(#clip740)" d="M55.6106 293.918 Q58.967 294.636 60.842 296.904 Q62.7402 299.173 62.7402 302.506 Q62.7402 307.622 59.2217 310.423 Q55.7032 313.224 49.2217 313.224 Q47.0458 313.224 44.731 312.784 Q42.4393 312.367 39.9856 311.511 L39.9856 306.997 Q41.9301 308.131 44.2449 308.71 Q46.5597 309.288 49.0828 309.288 Q53.4809 309.288 55.7726 307.552 Q58.0874 305.816 58.0874 302.506 Q58.0874 299.451 55.9346 297.738 Q53.805 296.001 49.9856 296.001 L45.9578 296.001 L45.9578 292.159 L50.1708 292.159 Q53.6198 292.159 55.4485 290.793 Q57.2772 289.404 57.2772 286.812 Q57.2772 284.15 55.3791 282.738 Q53.5041 281.303 49.9856 281.303 Q48.0643 281.303 45.8652 281.719 Q43.6662 282.136 41.0273 283.015 L41.0273 278.849 Q43.6893 278.108 46.0041 277.738 Q48.3421 277.367 50.4023 277.367 Q55.7263 277.367 58.8281 279.798 Q61.93 282.205 61.93 286.326 Q61.93 289.196 60.2865 291.187 Q58.643 293.154 55.6106 293.918 Z" fill="#000000" fill-rule="nonzero" fill-opacity="1" /><path clip-path="url(#clip740)" d="M-114.596 1131.91 L-108.326 1131.91 Q-110.077 1135.57 -110.936 1138.82 Q-111.795 1142.07 -111.795 1145.09 Q-111.795 1150.34 -109.758 1153.21 Q-107.721 1156.04 -103.966 1156.04 Q-100.814 1156.04 -99.1912 1154.16 Q-97.5998 1152.25 -96.6131 1146.97 L-95.8174 1143.09 Q-94.4488 1135.89 -90.9795 1132.49 Q-87.542 1129.05 -81.7492 1129.05 Q-74.8424 1129.05 -71.2776 1133.7 Q-67.7128 1138.31 -67.7128 1147.26 Q-67.7128 1150.63 -68.4767 1154.45 Q-69.2406 1158.24 -70.7365 1162.31 L-77.3569 1162.31 Q-75.1607 1158.4 -74.0467 1154.64 Q-72.9327 1150.88 -72.9327 1147.26 Q-72.9327 1141.75 -75.097 1138.76 Q-77.2614 1135.77 -81.2718 1135.77 Q-84.7729 1135.77 -86.7463 1137.93 Q-88.7196 1140.06 -89.7063 1144.96 L-90.4702 1148.88 Q-91.9025 1156.07 -94.958 1159.29 Q-98.0136 1162.5 -103.456 1162.5 Q-109.758 1162.5 -113.387 1158.08 Q-117.015 1153.62 -117.015 1145.82 Q-117.015 1142.48 -116.41 1139.01 Q-115.806 1135.54 -114.596 1131.91 Z" fill="#000000" fill-rule="nonzero" fill-opacity="1" /><path clip-path="url(#clip740)" d="M-90.1519 1089.65 L-68.6358 1089.65 L-68.6358 1095.5 L-89.961 1095.5 Q-95.0217 1095.5 -97.5362 1097.48 Q-100.051 1099.45 -100.051 1103.4 Q-100.051 1108.14 -97.0269 1110.88 Q-94.0032 1113.61 -88.7833 1113.61 L-68.6358 1113.61 L-68.6358 1119.5 L-104.284 1119.5 L-104.284 1113.61 L-98.7456 1113.61 Q-101.96 1111.51 -103.552 1108.68 Q-105.143 1105.82 -105.143 1102.09 Q-105.143 1095.95 -101.324 1092.8 Q-97.5362 1089.65 -90.1519 1089.65 Z" fill="#000000" fill-rule="nonzero" fill-opacity="1" /><path clip-path="url(#clip740)" d="M-100.178 1064.15 Q-100.178 1068.86 -96.4858 1071.6 Q-92.8255 1074.34 -86.428 1074.34 Q-80.0305 1074.34 -76.3383 1071.63 Q-72.6781 1068.89 -72.6781 1064.15 Q-72.6781 1059.47 -76.3702 1056.74 Q-80.0623 1054 -86.428 1054 Q-92.7619 1054 -96.454 1056.74 Q-100.178 1059.47 -100.178 1064.15 M-105.143 1064.15 Q-105.143 1056.51 -100.178 1052.15 Q-95.2127 1047.79 -86.428 1047.79 Q-77.6751 1047.79 -72.6781 1052.15 Q-67.7128 1056.51 -67.7128 1064.15 Q-67.7128 1071.82 -72.6781 1076.18 Q-77.6751 1080.51 -86.428 1080.51 Q-95.2127 1080.51 -100.178 1076.18 Q-105.143 1071.82 -105.143 1064.15 Z" fill="#000000" fill-rule="nonzero" fill-opacity="1" /><path clip-path="url(#clip740)" d="M-104.284 1041.49 L-104.284 1035.63 L-76.4657 1028.31 L-104.284 1021.02 L-104.284 1014.12 L-76.4657 1006.8 L-104.284 999.508 L-104.284 993.651 L-68.6358 1002.98 L-68.6358 1009.88 L-97.8544 1017.55 L-68.6358 1025.26 L-68.6358 1032.16 L-104.284 1041.49 Z" fill="#000000" fill-rule="nonzero" fill-opacity="1" /><path clip-path="url(#clip740)" d="M-98.8729 940.593 L-118.161 940.593 L-118.161 934.737 L-68.6358 934.737 L-68.6358 940.593 L-73.983 940.593 Q-70.8002 942.439 -69.2406 945.272 Q-67.7128 948.073 -67.7128 952.02 Q-67.7128 958.481 -72.869 962.555 Q-78.0253 966.597 -86.428 966.597 Q-94.8307 966.597 -99.9869 962.555 Q-105.143 958.481 -105.143 952.02 Q-105.143 948.073 -103.584 945.272 Q-102.056 942.439 -98.8729 940.593 M-86.428 960.55 Q-79.9668 960.55 -76.2747 957.908 Q-72.6144 955.234 -72.6144 950.587 Q-72.6144 945.94 -76.2747 943.267 Q-79.9668 940.593 -86.428 940.593 Q-92.8892 940.593 -96.5495 943.267 Q-100.242 945.94 -100.242 950.587 Q-100.242 955.234 -96.5495 957.908 Q-92.8892 960.55 -86.428 960.55 Z" fill="#000000" fill-rule="nonzero" fill-opacity="1" /><path clip-path="url(#clip740)" d="M-87.9239 892.182 L-85.0594 892.182 L-85.0594 919.109 Q-79.0119 918.727 -75.8291 915.481 Q-72.6781 912.202 -72.6781 906.378 Q-72.6781 903.004 -73.5056 899.853 Q-74.3331 896.67 -75.9882 893.551 L-70.4501 893.551 Q-69.1133 896.702 -68.413 900.012 Q-67.7128 903.322 -67.7128 906.728 Q-67.7128 915.258 -72.6781 920.255 Q-77.6433 925.22 -86.1097 925.22 Q-94.8626 925.22 -99.9869 920.509 Q-105.143 915.767 -105.143 907.746 Q-105.143 900.553 -100.496 896.383 Q-95.8811 892.182 -87.9239 892.182 M-89.6427 898.039 Q-94.4488 898.102 -97.3134 900.744 Q-100.178 903.354 -100.178 907.683 Q-100.178 912.584 -97.4088 915.544 Q-94.6398 918.472 -89.6108 918.918 L-89.6427 898.039 Z" fill="#000000" fill-rule="nonzero" fill-opacity="1" /><path clip-path="url(#clip740)" d="M-73.983 876.904 L-55.0769 876.904 L-55.0769 882.793 L-104.284 882.793 L-104.284 876.904 L-98.8729 876.904 Q-102.056 875.058 -103.584 872.257 Q-105.143 869.425 -105.143 865.51 Q-105.143 859.017 -99.9869 854.975 Q-94.8307 850.9 -86.428 850.9 Q-78.0253 850.9 -72.869 854.975 Q-67.7128 859.017 -67.7128 865.51 Q-67.7128 869.425 -69.2406 872.257 Q-70.8002 875.058 -73.983 876.904 M-86.428 856.98 Q-92.8892 856.98 -96.5495 859.653 Q-100.242 862.295 -100.242 866.942 Q-100.242 871.589 -96.5495 874.263 Q-92.8892 876.904 -86.428 876.904 Q-79.9668 876.904 -76.2747 874.263 Q-72.6144 871.589 -72.6144 866.942 Q-72.6144 862.295 -76.2747 859.653 Q-79.9668 856.98 -86.428 856.98 Z" fill="#000000" fill-rule="nonzero" fill-opacity="1" /><path clip-path="url(#clip740)" d="M-114.405 835.4 L-104.284 835.4 L-104.284 823.337 L-99.7323 823.337 L-99.7323 835.4 L-80.3806 835.4 Q-76.0201 835.4 -74.7787 834.222 Q-73.5374 833.013 -73.5374 829.353 L-73.5374 823.337 L-68.6358 823.337 L-68.6358 829.353 Q-68.6358 836.132 -71.1503 838.71 Q-73.6966 841.288 -80.3806 841.288 L-99.7323 841.288 L-99.7323 845.585 L-104.284 845.585 L-104.284 841.288 L-114.405 841.288 L-114.405 835.4 Z" fill="#000000" fill-rule="nonzero" fill-opacity="1" /><path clip-path="url(#clip740)" d="M-90.1519 786.002 L-68.6358 786.002 L-68.6358 791.859 L-89.961 791.859 Q-95.0217 791.859 -97.5362 793.832 Q-100.051 795.805 -100.051 799.752 Q-100.051 804.494 -97.0269 807.232 Q-94.0032 809.969 -88.7833 809.969 L-68.6358 809.969 L-68.6358 815.857 L-118.161 815.857 L-118.161 809.969 L-98.7456 809.969 Q-101.96 807.868 -103.552 805.036 Q-105.143 802.171 -105.143 798.447 Q-105.143 792.304 -101.324 789.153 Q-97.5362 786.002 -90.1519 786.002 Z" fill="#000000" fill-rule="nonzero" fill-opacity="1" /><polyline clip-path="url(#clip742)" style="stroke:#ffc77e; stroke-linecap:round; stroke-linejoin:round; stroke-width:4; stroke-opacity:1; fill:none" points="196.835,1848.79 197.818,1848.79 198.801,1848.79 199.783,1848.79 200.766,1848.79 201.749,1848.79 202.732,1848.79 203.715,1848.79 204.697,1848.79 205.68,1848.79 206.663,1848.79 207.646,1848.79 208.629,1848.79 209.612,1848.79 210.594,1848.79 211.577,1848.79 212.56,1848.79 213.543,1848.79 214.526,1848.19 215.508,1846.48 216.491,1842.58 217.474,1838 218.457,1835.03 219.44,1832.69 220.423,1830.48 221.405,1828.57 222.388,1826.62 223.371,1823.94 224.354,1821.37 225.337,1820.33 226.319,1820.33 227.302,1818.47 228.285,1815.86 229.268,1815.17 230.251,1815.17 231.234,1815.17 232.216,1814.47 233.199,1813.73 234.182,1813.73 235.165,1812.78 236.148,1810.6 237.13,1809.35 238.113,1809.35 239.096,1809.35 240.079,1809.35 241.062,1809.35 242.045,1809.35 243.027,1809.35 244.01,1809.35 244.993,1809.35 245.976,1809.35 246.959,1809.35 247.941,1809.35 248.924,1809.35 249.907,1809.35 250.89,1808.4 251.873,1806.8 252.856,1806.16 253.838,1806.16 254.821,1805.39 255.804,1804.53 256.787,1804.49 257.77,1804.49 258.752,1804.49 259.735,1804.49 260.718,1802.6 261.701,1794.45 262.684,1783.98 263.667,1776.25 264.649,1765.34 265.632,1750.43 266.615,1741.4 267.598,1736.91 268.581,1732.47 269.563,1730.71 270.546,1730.1 271.529,1729.79 272.512,1729.68 273.495,1728.42 274.478,1726.49 275.46,1725.45 276.443,1725.02 277.426,1724.43 278.409,1723.39 279.392,1722.6 280.374,1722.22 281.357,1722.22 282.34,1719.59 283.323,1710.72 284.306,1700.31 285.288,1693.45 286.271,1689.61 287.254,1688.13 288.237,1687.69 289.22,1686.55 290.203,1684.24 291.185,1681.91 292.168,1680.08 293.151,1679.25 294.134,1678.69 295.117,1678.04 296.099,1677.73 297.082,1677.73 298.065,1677.73 299.048,1677.14 300.031,1676.53 301.014,1676.53 301.996,1676.53 302.979,1676.53 303.962,1676.53 304.945,1676.53 305.928,1676.53 306.91,1675.93 307.893,1675.29 308.876,1675.29 309.859,1675.29 310.842,1675.29 311.825,1675.29 312.807,1675.29 313.79,1675.29 314.773,1675.29 315.756,1675.29 316.739,1675.29 317.721,1675.29 318.704,1675.29 319.687,1675.29 320.67,1675.29 321.653,1675.29 322.636,1675.29 323.618,1675.29 324.601,1675.29 325.584,1674.14 326.567,1672.01 327.55,1669.68 328.532,1664.5 329.515,1655.67 330.498,1645.45 331.481,1637.41 332.464,1632.35 333.447,1629.34 334.429,1628.26 335.412,1627.91 336.395,1627.3 337.378,1626.18 338.361,1624.77 339.343,1623.76 340.326,1622.15 341.309,1619.51 342.292,1617.65 343.275,1615.11 344.258,1612.17 345.24,1609.61 346.223,1607.49 347.206,1606.62 348.189,1606.62 349.172,1606.62 350.154,1606.62 351.137,1606.62 352.12,1605.63 353.103,1600.99 354.086,1590.38 355.069,1579.4 356.051,1571.34 357.034,1564.01 358.017,1557.63 359,1552.75 359.983,1549.93 360.965,1547.92 361.948,1546.89 362.931,1546.6 363.914,1546.6 364.897,1546.6 365.879,1546.6 366.862,1546.6 367.845,1546.6 368.828,1546.6 369.811,1546.6 370.794,1546.6 371.776,1546.6 372.759,1546.6 373.742,1546.6 374.725,1546.6 375.708,1546.6 376.69,1546.6 377.673,1546.6 378.656,1546.6 379.639,1546.6 380.622,1546.6 381.605,1546.6 382.587,1546.6 383.57,1546.01 384.553,1544.59 385.536,1542.71 386.519,1540.56 387.501,1538.31 388.484,1536.08 389.467,1534.08 390.45,1531.84 391.433,1529.64 392.416,1527 393.398,1521.23 394.381,1512.99 395.364,1501.54 396.347,1487.24 397.33,1473.44 398.312,1462.2 399.295,1453.76 400.278,1446.33 401.261,1439.36 402.244,1433.63 403.227,1429.93 404.209,1424.53 405.192,1418.17 406.175,1414.38 407.158,1412.78 408.141,1410.77 409.123,1408.04 410.106,1404.95 411.089,1402.04 412.072,1398.61 413.055,1393.23 414.038,1387.8 415.02,1383.1 416.003,1377.95 416.986,1373.34 417.969,1370.54 418.952,1368.53 419.934,1366.18 420.917,1363.74 421.9,1361.43 422.883,1359.38 423.866,1357.2 424.849,1355.03 425.831,1353.21 426.814,1351.52 427.797,1349.71 428.78,1348.29 429.763,1346.57 430.745,1344.53 431.728,1343.2 432.711,1342.38 433.694,1342 434.677,1341.35 435.66,1340.49 436.642,1340.22 437.625,1340.11 438.608,1340.11 439.591,1339.51 440.574,1338.76 441.556,1338.64 442.539,1338.64 443.522,1338.64 444.505,1338.64 445.488,1338.64 446.471,1338.64 447.453,1338.64 448.436,1338.64 449.419,1338.64 450.402,1338.64 451.385,1338.64 452.367,1338.64 453.35,1338.64 454.333,1338.64 455.316,1338.64 456.299,1338.64 457.281,1338.64 458.264,1338.64 459.247,1338.64 460.23,1338.64 461.213,1338.64 462.196,1338.64 463.178,1338.64 464.161,1338.64 465.144,1338.64 466.127,1338.64 467.11,1338.64 468.092,1338.64 469.075,1338.64 470.058,1338.64 471.041,1338.64 472.024,1338.64 473.007,1338.64 473.989,1338.64 474.972,1338.64 475.955,1338.64 476.938,1338.64 477.921,1338.64 478.903,1338.64 479.886,1338.64 480.869,1338.64 481.852,1338.64 482.835,1338.64 483.818,1338.64 484.8,1338.64 485.783,1338.64 486.766,1338.64 487.749,1338.64 488.732,1338.64 489.714,1338.64 490.697,1338.64 491.68,1338.64 492.663,1338.64 493.646,1338.64 494.629,1338.64 495.611,1338.64 496.594,1338.64 497.577,1338.64 498.56,1337.67 499.543,1335.41 500.525,1332.08 501.508,1327.14 502.491,1321.86 503.474,1316.73 504.457,1312.03 505.44,1307.95 506.422,1303.64 507.405,1299.79 508.388,1296.4 509.371,1293.31 510.354,1289.95 511.336,1286.17 512.319,1283.24 513.302,1280.64 514.285,1277.12 515.268,1273.81 516.251,1271.59 517.233,1269.69 518.216,1268.29 519.199,1267.41 520.182,1267.06 521.165,1266.52 522.147,1265.93 523.13,1265.9 524.113,1265.89 525.096,1265.89 526.079,1262.95 527.062,1255.89 528.044,1248.56 529.027,1242.27 530.01,1236.64 530.993,1232.01 531.976,1228.68 532.958,1226.65 533.941,1225.47 534.924,1224.69 535.907,1224.32 536.89,1223.56 537.873,1222.3 538.855,1221.3 539.838,1220.74 540.821,1220.01 541.804,1218.84 542.787,1218 543.769,1217.53 544.752,1216.56 545.735,1215.15 546.718,1214.28 547.701,1213.22 548.683,1212.13 549.666,1210.99 550.649,1209.69 551.632,1209 552.615,1207.85 553.598,1205.54 554.58,1202.35 555.563,1198.21 556.546,1193.27 557.529,1187.85 558.512,1183.09 559.494,1178.65 560.477,1174.88 561.46,1172.17 562.443,1169.35 563.426,1165.29 564.409,1161.06 565.391,1158.99 566.374,1158.83 567.357,1157.88 568.34,1154.51 569.323,1149 570.305,1133.33 571.288,1109.45 572.271,1096.06 573.254,1091 574.237,1077.94 575.22,1060.65 576.202,1048.77 577.185,1039.54 578.168,1028.84 579.151,1017.12 580.134,1002.85 581.116,988.757 582.099,981.588 583.082,978.757 584.065,978.123 585.048,978.075 586.031,978.072 587.013,978.07 587.996,978.07 588.979,978.07 589.962,978.07 590.945,978.07 591.927,978.07 592.91,978.07 593.893,978.07 594.876,978.07 595.859,978.07 596.842,976.634 597.824,974.552 598.807,973.95 599.79,973.95 600.773,973.95 601.756,973.95 602.738,973.95 603.721,973.95 604.704,973.95 605.687,973.95 606.67,973.95 607.653,973.95 608.635,972.944 609.618,970.639 610.601,968.64 611.584,966.995 612.567,965.201 613.549,963.723 614.532,963.088 615.515,963.088 616.498,963.088 617.481,961.694 618.464,960.223 619.446,960.223 620.429,959.607 621.412,958.769 622.395,958.569 623.378,958.569 624.36,958.569 625.343,958.569 626.326,958.569 627.309,958.569 628.292,958.569 629.275,958.569 630.257,958.569 631.24,958.569 632.223,957.857 633.206,956.549 634.189,954.935 635.171,953.525 636.154,953.084 637.137,952.794 638.12,952.585 639.103,952.585 640.085,952.585 641.068,952.585 642.051,952.585 643.034,952.585 644.017,952.585 645,952.585 645.982,952.585 646.965,952.585 647.948,952.585 648.931,952.585 649.914,952.585 650.896,952.585 651.879,952.585 652.862,952.585 653.845,951.279 654.828,946.415 655.811,941.697 656.793,940.407 657.776,940.223 658.759,940.223 659.742,940.223 660.725,940.223 661.707,940.223 662.69,940.223 663.673,940.223 664.656,940.223 665.639,940.223 666.622,940.223 667.604,940.223 668.587,940.223 669.57,940.223 670.553,940.223 671.536,938.264 672.518,935.706 673.501,935.231 674.484,935.231 675.467,935.231 676.45,935.231 677.433,935.231 678.415,935.231 679.398,935.231 680.381,935.231 681.364,935.231 682.347,935.231 683.329,935.231 684.312,935.231 685.295,935.231 686.278,935.231 687.261,935.231 688.244,934.551 689.226,932.831 690.209,929.397 691.192,923.844 692.175,917.154 693.158,910.868 694.14,904.02 695.123,891.637 696.106,875.262 697.089,863.825 698.072,859.983 699.055,859.409 700.037,859.318 701.02,859.283 702.003,859.283 702.986,859.283 703.969,859.283 704.951,859.283 705.934,858.116 706.917,855.699 707.9,853.335 708.883,850.944 709.866,848.436 710.848,845.871 711.831,843.07 712.814,841.531 713.797,841.531 714.78,840.821 715.762,839.942 716.745,839.817 717.728,839.817 718.711,839.817 719.694,839.817 720.677,839.817 721.659,839.279 722.642,837.706 723.625,834.951 724.608,830.8 725.591,826.123 726.573,822.048 727.556,819.17 728.539,817.454 729.522,816.309 730.505,815.52 731.487,814.978 732.47,814.735 733.453,814.735 734.436,814.735 735.419,814.735 736.402,814.735 737.384,814.735 738.367,814.153 739.35,812.744 740.333,811.227 741.316,810.246 742.298,809.944 743.281,809.913 744.264,809.907 745.247,809.907 746.23,809.232 747.213,805.966 748.195,800.071 749.178,791.23 750.161,779.954 751.144,771.219 752.127,766.617 753.109,764.163 754.092,762.791 755.075,762.09 756.058,761.866 757.041,761.866 758.024,761.866 759.006,761.866 759.989,761.263 760.972,759.961 761.955,758.945 762.938,758.572 763.92,758.529 764.903,758.529 765.886,758.529 766.869,758.529 767.852,758.529 768.835,758.529 769.817,758.529 770.8,758.529 771.783,758.529 772.766,758.529 773.749,758.529 774.731,758.529 775.714,758.529 776.697,758.529 777.68,758.529 778.663,758.529 779.646,756.782 780.628,752.877 781.611,750.561 782.594,750.387 783.577,750.368 784.56,750.368 785.542,750.368 786.525,744.28 787.508,730.291 788.491,713.209 789.474,698.675 790.457,693.233 791.439,693.041 792.422,693.041 793.405,693.041 794.388,693.041 795.371,693.041 796.353,693.041 797.336,693.041 798.319,693.041 799.302,693.041 800.285,693.041 801.268,693.041 802.25,693.041 803.233,693.041 804.216,693.041 805.199,693.041 806.182,693.041 807.164,693.041 808.147,693.041 809.13,693.041 810.113,693.041 811.096,693.041 812.079,693.041 813.061,693.041 814.044,692.084 815.027,691.071 816.01,689.962 816.993,688.077 817.975,686.024 818.958,682.031 819.941,676.668 820.924,672.052 821.907,669.418 822.889,668.729 823.872,668.729 824.855,668.729 825.838,668.729 826.821,668.729 827.804,668.729 828.786,668.729 829.769,668.729 830.752,668.729 831.735,668.729 832.718,668.729 833.7,668.729 834.683,668.729 835.666,667.825 836.649,665.476 837.632,663.207 838.615,662.366 839.597,661.361 840.58,659.89 841.563,659.132 842.546,658.777 843.529,658.777 844.511,658.777 845.494,658.777 846.477,658.777 847.46,658.777 848.443,658.777 849.426,657.875 850.408,656.914 851.391,656.308 852.374,654.875 853.357,653.038 854.34,652.001 855.322,651.033 856.305,649.493 857.288,648.38 858.271,647.261 859.254,645.52 860.237,642.81 861.219,639.91 862.202,638.479 863.185,637.362 864.168,635.615 865.151,633.633 866.133,630.2 867.116,625.03 868.099,618.237 869.082,610.072 870.065,602.05 871.048,595.258 872.03,589.852 873.013,586.773 873.996,585.154 874.979,583.84 875.962,582.306 876.944,581.061 877.927,580.609 878.91,579.918 879.893,578.666 880.876,577.681 881.859,577.229 882.841,577.229 883.824,577.229 884.807,577.229 885.79,577.229 886.773,577.229 887.755,577.229 888.738,576.597 889.721,575.93 890.704,575.328 891.687,574.538 892.67,574.223 893.652,574.055 894.635,574.055 895.618,574.055 896.601,574.055 897.584,574.055 898.566,574.055 899.549,574.055 900.532,574.055 901.515,574.055 902.498,574.055 903.48,574.055 904.463,574.055 905.446,574.055 906.429,574.055 907.412,574.055 908.395,572.813 909.377,571.446 910.36,570.34 911.343,568.335 912.326,567.146 913.309,566.29 914.291,565.228 915.274,564.125 916.257,562.969 917.24,562.379 918.223,561.596 919.206,560.57 920.188,560.172 921.171,559.422 922.154,558.569 923.137,557.894 924.12,557.064 925.102,556.624 926.085,556.624 927.068,556.624 928.051,556.086 929.034,555.521 930.017,555.521 930.999,555.521 931.982,555.521 932.965,555.521 933.948,555.521 934.931,555.521 935.913,555.521 936.896,555.521 937.879,554.959 938.862,554.1 939.845,553.444 940.828,553.043 941.81,551.774 942.793,549.866 943.776,548.707 944.759,547.322 945.742,545.761 946.724,544.229 947.707,542.434 948.69,540.867 949.673,539.612 950.656,538.232 951.639,537.064 952.621,536.533 953.604,535.827 954.587,534.838 955.57,534.54 956.553,534.425 957.535,534.425 958.518,534.425 959.501,534.425 960.484,534.425 961.467,534.425 962.45,534.425 963.432,534.425 964.415,534.425 965.398,534.425 966.381,534.425 967.364,534.425 968.346,534.425 969.329,534.425 970.312,534.425 971.295,534.425 972.278,534.425 973.261,534.425 974.243,534.425 975.226,534.425 976.209,534.425 977.192,534.425 978.175,533.748 979.157,532.641 980.14,532.227 981.123,531.722 982.106,531.04 983.089,530.807 984.072,530.728 985.054,530.728 986.037,530.728 987.02,530.728 988.003,530.728 988.986,530.728 989.968,530.728 990.951,530.211 991.934,529.666 992.917,529.05 993.9,527.942 994.882,526.821 995.865,526.15 996.848,525.453 997.831,524.045 998.814,523.018 999.797,522.683 1000.78,522.683 1001.76,522.683 1002.75,522.683 1003.73,522.683 1004.71,522.683 1005.69,522.683 1006.68,521.89 1007.66,521.038 1008.64,521.038 1009.62,521.038 1010.61,521.038 1011.59,521.038 1012.57,521.038 1013.56,521.038 1014.54,521.038 1015.52,521.038 1016.5,521.038 1017.49,521.038 1018.47,521.038 1019.45,521.038 1020.44,521.038 1021.42,521.038 1022.4,521.038 1023.38,521.038 1024.37,521.038 1025.35,521.038 1026.33,521.038 1027.32,521.038 1028.3,521.038 1029.28,521.038 1030.26,521.038 1031.25,521.038 1032.23,521.038 1033.21,521.038 1034.2,521.038 1035.18,521.038 1036.16,521.038 1037.14,521.038 1038.13,521.038 1039.11,521.038 1040.09,521.038 1041.07,521.038 1042.06,521.038 1043.04,521.038 1044.02,521.038 1045.01,521.038 1045.99,521.038 1046.97,521.038 1047.95,521.038 1048.94,521.038 1049.92,521.038 1050.9,521.038 1051.89,521.038 1052.87,521.038 1053.85,521.038 1054.83,521.038 1055.82,521.038 1056.8,521.038 1057.78,521.038 1058.77,521.038 1059.75,521.038 1060.73,521.038 1061.71,521.038 1062.7,521.038 1063.68,519.875 1064.66,516.624 1065.65,510.747 1066.63,504.844 1067.61,499.519 1068.59,492.874 1069.58,487.151 1070.56,483.302 1071.54,480.709 1072.53,478.66 1073.51,476.612 1074.49,474.508 1075.47,472.714 1076.46,471.192 1077.44,469.853 1078.42,469.192 1079.4,469.192 1080.39,469.192 1081.37,469.192 1082.35,469.192 1083.34,469.192 1084.32,469.192 1085.3,469.192 1086.28,469.192 1087.27,467.811 1088.25,465.831 1089.23,464.854 1090.22,463.198 1091.2,461.055 1092.18,460.007 1093.16,459.768 1094.15,459.67 1095.13,459.67 1096.11,459.67 1097.1,459.67 1098.08,459.67 1099.06,459.67 1100.04,459.67 1101.03,459.67 1102.01,459.67 1102.99,459.67 1103.98,459.67 1104.96,459.67 1105.94,459.67 1106.92,459.67 1107.91,459.67 1108.89,459.67 1109.87,459.67 1110.85,459.67 1111.84,459.67 1112.82,459.67 1113.8,459.16 1114.79,457.431 1115.77,455.13 1116.75,452.332 1117.73,449.588 1118.72,448.416 1119.7,448.079 1120.68,447.795 1121.67,447.669 1122.65,447.669 1123.63,447.669 1124.61,447.669 1125.6,447.669 1126.58,447.669 1127.56,447.669 1128.55,447.669 1129.53,447.669 1130.51,447.669 1131.49,447.669 1132.48,447.669 1133.46,447.669 1134.44,447.669 1135.43,447.669 1136.41,447.093 1137.39,446.471 1138.37,446.471 1139.36,445.948 1140.34,445.271 1141.32,445.137 1142.31,445.137 1143.29,445.137 1144.27,445.137 1145.25,445.137 1146.24,445.137 1147.22,445.137 1148.2,445.137 1149.18,445.137 1150.17,445.137 1151.15,445.137 1152.13,445.137 1153.12,445.137 1154.1,445.137 1155.08,445.137 1156.06,445.137 1157.05,445.137 1158.03,445.137 1159.01,445.137 1160,445.137 1160.98,445.137 1161.96,445.137 1162.94,445.137 1163.93,445.137 1164.91,445.137 1165.89,445.137 1166.88,445.137 1167.86,445.137 1168.84,445.137 1169.82,445.137 1170.81,445.137 1171.79,445.137 1172.77,445.137 1173.76,445.137 1174.74,445.137 1175.72,445.137 1176.7,445.137 1177.69,445.137 1178.67,445.137 1179.65,445.137 1180.63,445.137 1181.62,445.137 1182.6,445.137 1183.58,445.137 1184.57,445.137 1185.55,445.137 1186.53,445.137 1187.51,445.137 1188.5,445.137 1189.48,445.137 1190.46,445.137 1191.45,445.137 1192.43,445.137 1193.41,445.137 1194.39,445.137 1195.38,445.137 1196.36,445.137 1197.34,445.137 1198.33,445.137 1199.31,445.137 1200.29,445.137 1201.27,445.137 1202.26,445.137 1203.24,445.137 1204.22,445.137 1205.21,445.137 1206.19,445.137 1207.17,444.544 1208.15,443.909 1209.14,443.909 1210.12,443.909 1211.1,443.909 1212.09,443.909 1213.07,443.909 1214.05,443.909 1215.03,443.909 1216.02,443.909 1217,443.354 1217.98,442.542 1218.96,442.068 1219.95,441.812 1220.93,441.812 1221.91,441.812 1222.9,441.812 1223.88,441.812 1224.86,441.812 1225.84,441.165 1226.83,439.86 1227.81,439.209 1228.79,438.041 1229.78,435.49 1230.76,433.389 1231.74,431.535 1232.72,429.294 1233.71,427.661 1234.69,426.839 1235.67,426.512 1236.66,425.889 1237.64,425.034 1238.62,424.614 1239.6,424.322 1240.59,424.322 1241.57,423.569 1242.55,422.492 1243.54,422.222 1244.52,421.048 1245.5,419.241 1246.48,418.3 1247.47,417.905 1248.45,417.905 1249.43,417.905 1250.41,417.905 1251.4,417.905 1252.38,417.905 1253.36,417.905 1254.35,417.905 1255.33,417.905 1256.31,417.273 1257.29,415.628 1258.28,413.341 1259.26,411.449 1260.24,410.147 1261.23,408.773 1262.21,407.29 1263.19,404.696 1264.17,400.239 1265.16,394.502 1266.14,387.337 1267.12,380.283 1268.11,373.786 1269.09,367.318 1270.07,362.322 1271.05,360.123 1272.04,359.371 1273.02,358.003 1274,356.5 1274.99,355.536 1275.97,354.566 1276.95,353.411 1277.93,353.245 1278.92,353.213 1279.9,351.732 1280.88,348.666 1281.87,345.805 1282.85,342.759 1283.83,337.957 1284.81,331.756 1285.8,326.039 1286.78,321.332 1287.76,317.233 1288.74,313.797 1289.73,311.203 1290.71,310.033 1291.69,308.807 1292.68,307.26 1293.66,306.872 1294.64,306.746 1295.62,306.746 1296.61,306.746 1297.59,306.746 1298.57,306.746 1299.56,305.35 1300.54,302.812 1301.52,300.997 1302.5,299.673 1303.49,298.494 1304.47,297.537 1305.45,296.922 1306.44,296.695 1307.42,295.565 1308.4,293.861 1309.38,293.044 1310.37,292.744 1311.35,292.744 1312.33,292.744 1313.32,292.744 1314.3,292.744 1315.28,290.653 1316.26,287.968 1317.25,287.023 1318.23,286.581 1319.21,285.764 1320.19,284.722 1321.18,284.175 1322.16,283.798 1323.14,283.798 1324.13,281.638 1325.11,276.546 1326.09,273.57 1327.07,273.57 1328.06,273.57 1329.04,273.57 1330.02,273.57 1331.01,272.245 1331.99,269 1332.97,266.681 1333.95,266.307 1334.94,266.307 1335.92,266.307 1336.9,266.307 1337.89,266.307 1338.87,266.307 1339.85,266.307 1340.83,266.307 1341.82,266.307 1342.8,266.307 1343.78,266.307 1344.77,266.307 1345.75,266.307 1346.73,265.363 1347.71,263.926 1348.7,263.034 1349.68,262.604 1350.66,260.751 1351.65,255.479 1352.63,249.832 1353.61,247.539 1354.59,247.539 1355.58,247.539 1356.56,245.416 1357.54,238.158 1358.52,226.411 1359.51,217.567 1360.49,215.129 1361.47,214.835 1362.46,214.835 1363.44,214.835 1364.42,214.835 1365.4,214.835 1366.39,214.835 1367.37,214.835 1368.35,214.835 1369.34,213.717 1370.32,211.552 1371.3,210.422 1372.28,210.339 1373.27,210.339 1374.25,210.339 1375.23,210.339 1376.22,210.339 1377.2,210.339 1378.18,210.339 1379.16,210.339 1380.15,210.339 1381.13,210.339 1382.11,210.339 1383.1,210.339 1384.08,210.339 1385.06,210.339 1386.04,210.339 1387.03,210.339 1388.01,210.339 1388.99,210.339 1389.98,210.339 1390.96,209.736 1391.94,208.485 1392.92,207.837 1393.91,207.837 1394.89,207.108 1395.87,206.246 1396.85,206.178 1397.84,206.178 1398.82,205.405 1399.8,204.278 1400.79,203.952 1401.77,203.952 1402.75,203.952 1403.73,202.682 1404.72,200.576 1405.7,198.976 1406.68,196.786 1407.67,194.805 1408.65,194.211 1409.63,193.479 1410.61,192.511 1411.6,192.043 1412.58,191.764 1413.56,191.764 1414.55,191.12 1415.53,190.342 1416.51,190.232 1417.49,190.232 1418.48,190.232 1419.46,190.232 1420.44,190.232 1421.43,190.232 1422.41,190.232 1423.39,190.232 1424.37,190.232 1425.36,190.232 1426.34,190.232 1427.32,190.232 1428.3,189.683 1429.29,188.696 1430.27,187.803 1431.25,186.836 1432.24,186.331 1433.22,186.331 1434.2,186.331 1435.18,186.331 1436.17,186.331 1437.15,186.331 1438.13,185.547 1439.12,184.519 1440.1,184.304 1441.08,184.304 1442.06,184.304 1443.05,184.304 1444.03,184.304 1445.01,184.304 1446,184.304 1446.98,184.304 1447.96,184.304 1448.94,184.304 1449.93,184.304 1450.91,184.304 1451.89,184.304 1452.88,184.304 1453.86,184.304 1454.84,184.304 1455.82,184.304 1456.81,184.304 1457.79,184.304 1458.77,184.304 1459.76,184.304 1460.74,183.687 1461.72,182.923 1462.7,182.593 1463.69,182.355 1464.67,182.355 1465.65,182.355 1466.63,182.355 1467.62,182.355 1468.6,182.355 1469.58,180.556 1470.57,176.02 1471.55,171.098 1472.53,167.63 1473.51,165.289 1474.5,162.841 1475.48,160.189 1476.46,158.033 1477.45,156.754 1478.43,156.326 1479.41,156.315 1480.39,156.315 1481.38,156.315 1482.36,156.315 1483.34,156.315 1484.33,156.315 1485.31,156.315 1486.29,156.315 1487.27,154.925 1488.26,152.743 1489.24,151.228 1490.22,149.272 1491.21,148.025 1492.19,146.626 1493.17,144.419 1494.15,142.569 1495.14,141.418 1496.12,139.915 1497.1,137.328 1498.08,135.377 1499.07,134.394 1500.05,133.19 1501.03,131.241 1502.02,130.412 1503,130.29 1503.98,130.29 1504.96,130.29 1505.95,130.29 1506.93,130.29 1507.91,130.29 1508.9,130.29 1509.88,130.29 1510.86,130.29 1511.84,130.29 1512.83,130.29 1513.81,130.29 1514.79,130.29 1515.78,130.29 1516.76,130.29 1517.74,130.29 1518.72,130.29 1519.71,130.29 1520.69,130.29 1521.67,130.29 1522.66,130.29 1523.64,130.29 1524.62,130.29 1525.6,130.29 1526.59,130.29 1527.57,130.29 1528.55,130.29 1529.54,130.29 1530.52,130.29 1531.5,128.917 1532.48,122.881 1533.47,110.551 1534.45,99.7162 1535.43,100.019 1536.41,110.006 1537.4,120.603 1538.38,122.372 1539.36,120.944 1540.35,118.911 1541.33,118.242 1542.31,118.112 1543.29,118.112 1544.28,118.112 1545.26,118.112 1546.24,118.112 1547.23,118.112 1548.21,117.587 1549.19,116.91 1550.17,116.78 1551.16,116.78 1552.14,116.78 1553.12,116.78 1554.11,116.78 1555.09,116.78 1556.07,116.78 1557.05,116.78 1558.04,123.067 1559.02,151.081 1560,184.166 1560.99,213.328 1561.97,239.506 1562.95,263.188 1563.93,275.978 1564.92,276.037 1565.9,288.93 1566.88,325.515 1567.86,358.65 1568.85,365.441 1569.83,365.441 1570.81,365.441 1571.8,365.441 1572.78,365.441 1573.76,365.7 1574.74,385.895 1575.73,410.838 1576.71,413.745 1577.69,413.745 1578.68,413.745 1579.66,413.745 1580.64,413.745 1581.62,430.789 1582.61,466.579 1583.59,514.768 1584.57,557.402 1585.56,572.273 1586.54,572.273 1587.52,572.273 1588.5,581.973 1589.49,630.15 1590.47,711.89 1591.45,799.399 1592.44,859.767 1593.42,893.368 1594.4,921.631 1595.38,946.039 1596.37,961.251 1597.35,987.799 1598.33,1039.11 1599.32,1080.16 1600.3,1090.54 1601.28,1090.54 1602.26,1089.99 1603.25,1088.37 1604.23,1086.06 1605.21,1084.77 1606.19,1084.77 1607.18,1084.77 1608.16,1084.77 1609.14,1084.77 1610.13,1084.77 1611.11,1084.77 1612.09,1084.03 1613.07,1083.25 1614.06,1083.25 1615.04,1083.25 1616.02,1083.25 1617.01,1083.25 1617.99,1082.22 1618.97,1080.67 1619.95,1079.88 1620.94,1079.54 1621.92,1079.54 1622.9,1079.54 1623.89,1079.54 1624.87,1079.54 1625.85,1079.54 1626.83,1079.54 1627.82,1078.69 1628.8,1077.78 1629.78,1077.78 1630.77,1077.78 1631.75,1077.78 1632.73,1077.78 1633.71,1077.04 1634.7,1075.89 1635.68,1074.92 1636.66,1074.3 1637.64,1074.3 1638.63,1074.3 1639.61,1074.3 1640.59,1074.3 1641.58,1074.3 1642.56,1074.3 1643.54,1073.65 1644.52,1072.96 1645.51,1072.96 1646.49,1072.96 1647.47,1072.96 1648.46,1072.96 1649.44,1072.96 1650.42,1072.96 1651.4,1072.96 1652.39,1072.96 1653.37,1072.96 1654.35,1072.96 1655.34,1072.96 1656.32,1072.96 1657.3,1072.37 1658.28,1071.28 1659.27,1070.22 1660.25,1069.62 1661.23,1068.99 1662.22,1067.26 1663.2,1064.12 1664.18,1059.04 1665.16,1052.93 1666.15,1048.42 1667.13,1046.53 1668.11,1045.99 1669.1,1045.99 1670.08,1045.99 1671.06,1045.99 1672.04,1043.58 1673.03,1035.36 1674.01,1021.14 1674.99,1007.16 1675.97,1000.44 1676.96,998.851 1677.94,998.334 1678.92,998.123 1679.91,997.229 1680.89,995.166 1681.87,992.24 1682.85,989.442 1683.84,988.328 1684.82,987.551 1685.8,986.386 1686.79,985.731 1687.77,985.428 1688.75,985.428 1689.73,985.428 1690.72,985.428 1691.7,985.428 1692.68,985.428 1693.67,984.764 1694.65,983.873 1695.63,983.674 1696.61,983.674 1697.6,983.674 1698.58,983.674 1699.56,983.674 1700.55,983.674 1701.53,983.674 1702.51,983.674 1703.49,983.674 1704.48,983.674 1705.46,983.157 1706.44,982.392 1707.42,982.158 1708.41,982.158 1709.39,982.158 1710.37,982.158 1711.36,982.158 1712.34,982.158 1713.32,982.158 1714.3,982.158 1715.29,982.158 1716.27,982.158 1717.25,982.158 1718.24,982.158 1719.22,982.158 1720.2,982.158 1721.18,982.158 1722.17,982.158 1723.15,982.158 1724.13,982.158 1725.12,982.158 1726.1,982.158 1727.08,982.158 1728.06,981.621 1729.05,980.674 1730.03,979.952 1731.01,979.614 1732,979.614 1732.98,979.614 1733.96,979.614 1734.94,979.614 1735.93,979.614 1736.91,979.614 1737.89,979.614 1738.88,979.614 1739.86,978.915 1740.84,975.63 1741.82,972.328 1742.81,971.639 1743.79,970.891 1744.77,970.024 1745.75,969.936 1746.74,972.642 1747.72,989.392 1748.7,996.781 1749.69,996.781 1750.67,996.781 1751.65,996.781 1752.63,996.781 1753.62,996.781 1754.6,996.781 1755.58,987.923 1756.57,974.249 1757.55,967.899 1758.53,966.141 1759.51,966.141 1760.5,966.141 1761.48,966.141 1762.46,966.141 1763.45,966.141 1764.43,966.141 1765.41,966.141 1766.39,966.141 1767.38,966.141 1768.36,965.284 1769.34,963.986 1770.33,963.572 1771.31,963.572 1772.29,963.572 1773.27,963.572 1774.26,963.572 1775.24,963.572 1776.22,963.572 1777.2,963.572 1778.19,964.388 1779.17,976.054 1780.15,987.401 1781.14,988.692 1782.12,988.692 1783.1,972.414 1784.08,939.026 1785.07,909.095 1786.05,894.944 1787.03,895.018 1788.02,898.901 1789,900.166 1789.98,900.166 1790.96,900.166 1791.95,900.166 1792.93,900.166 1793.91,908.347 1794.9,929.536 1795.88,943.065 1796.86,943.73 1797.84,942.828 1798.83,942.828 1799.81,942.828 1800.79,942.828 1801.78,942.828 1802.76,942.828 1803.74,942.828 1804.72,942.828 1805.71,942.828 1806.69,942.828 1807.67,942.236 1808.66,941.52 1809.64,941.426 1810.62,941.427 1811.6,948.421 1812.59,953.992 1813.57,953.992 1814.55,953.992 1815.53,953.992 1816.52,956.155 1817.5,967.798 1818.48,980.809 1819.47,994.608 1820.45,1009.82 1821.43,1015.35 1822.41,1015.35 1823.4,1015.35 1824.38,1015.35 1825.36,1015.35 1826.35,1015.39 1827.33,1016.47 1828.31,1016.57 1829.29,1016.57 1830.28,1016.57 1831.26,1015.84 1832.24,1014.85 1833.23,1014.61 1834.21,1014.61 1835.19,1014.61 1836.17,1014.61 1837.16,1014.61 1838.14,1014.61 1839.12,1014.61 1840.11,1014.61 1841.09,1016.83 1842.07,1029.88 1843.05,1050.2 1844.04,1066.71 1845.02,1067.45 1846,1067.45 1846.98,1067.85 1847.97,1088.87 1848.95,1144.01 1849.93,1225.32 1850.92,1304.27 1851.9,1357.64 1852.88,1388.74 1853.86,1406.5 1854.85,1425.55 1855.83,1458.22 1856.81,1508.27 1857.8,1577.03 1858.78,1646.1 1859.76,1700.58 1860.74,1742.79 1861.73,1848.79 1862.71,1848.79 1863.69,1848.79 1864.68,1848.79 1865.66,1848.79 1866.64,1848.79 1867.62,1848.79 1868.61,1848.79 1869.59,1848.79 1870.57,1848.79 1871.56,1848.79 1872.54,1848.79 1873.52,1848.79 1874.5,1848.79 1875.49,1848.79 1876.47,1848.79 1877.45,1848.79 1878.44,1848.79 1879.42,1848.79 1880.4,1848.79 1881.38,1848.79 1882.37,1848.79 1883.35,1848.79 1884.33,1848.79 1885.31,1848.79 1886.3,1848.79 1887.28,1848.79 1888.26,1848.79 1889.25,1848.79 1890.23,1848.79 1891.21,1848.79 1892.19,1848.79 1893.18,1848.79 1894.16,1848.79 1895.14,1848.79 1896.13,1848.79 1897.11,1848.79 1898.09,1848.79 1899.07,1848.79 1900.06,1848.79 1901.04,1848.79 1902.02,1848.79 1903.01,1848.79 1903.99,1848.79 1904.97,1848.79 1905.95,1848.79 1906.94,1848.79 1907.92,1848.79 1908.9,1848.79 1909.89,1847.96 1910.87,1846.79 1911.85,1846.46 1912.83,1846.46 1913.82,1846.46 1914.8,1846.46 1915.78,1846.46 1916.77,1844.76 1917.75,1842.23 1918.73,1841.15 1919.71,1840.87 1920.7,1840.87 1921.68,1840.87 1922.66,1840.87 1923.64,1840.87 1924.63,1840.87 1925.61,1840.87 1926.59,1840.87 1927.58,1840.87 1928.56,1840.87 1929.54,1840.87 1930.52,1840.87 1931.51,1840.87 1932.49,1840.87 1933.47,1840.87 1934.46,1840.87 1935.44,1840.87 1936.42,1840.87 1937.4,1840.87 1938.39,1840.87 1939.37,1840.87 1940.35,1840.87 1941.34,1840.87 1942.32,1840.87 1943.3,1840.87 1944.28,1840.87 1945.27,1840.87 1946.25,1840.87 1947.23,1840.87 1948.22,1840.87 1949.2,1840.87 1950.18,1840.87 1951.16,1840.87 1952.15,1840.87 1953.13,1840.87 1954.11,1840.87 1955.09,1840.87 1956.08,1840.87 1957.06,1840.87 1958.04,1840.87 1959.03,1840.87 1960.01,1840.87 1960.99,1840.87 1961.97,1840.87 1962.96,1840.87 1963.94,1840.87 1964.92,1840.87 1965.91,1840.87 1966.89,1840.87 1967.87,1840.87 1968.85,1840.87 1969.84,1840.87 1970.82,1840.87 1971.8,1840.87 1972.79,1840.87 1973.77,1840.87 1974.75,1840.87 1975.73,1840.87 1976.72,1840.87 1977.7,1840.87 1978.68,1840.87 1979.67,1840.87 1980.65,1840.87 1981.63,1840.87 1982.61,1840.87 1983.6,1840.87 1984.58,1840.87 1985.56,1840.87 1986.55,1840.87 1987.53,1840.87 1988.51,1840.87 1989.49,1840.87 1990.48,1840.87 1991.46,1840.87 1992.44,1840.87 1993.42,1840.87 1994.41,1840.87 1995.39,1840.87 1996.37,1840.87 1997.36,1840.87 1998.34,1840.87 1999.32,1840.87 2000.3,1840.87 2001.29,1840.87 2002.27,1840.87 2003.25,1840.87 2004.24,1840.87 2005.22,1840.87 2006.2,1840.87 2007.18,1840.87 2008.17,1840.87 2009.15,1840.87 2010.13,1840.87 2011.12,1840.87 2012.1,1840.87 2013.08,1840.87 2014.06,1840.87 2015.05,1840.87 2016.03,1840.87 2017.01,1840.87 2018,1840.87 2018.98,1840.87 2019.96,1840.87 2020.94,1840.87 2021.93,1840.87 2022.91,1840.87 2023.89,1840.87 2024.87,1840.87 2025.86,1840.87 2026.84,1840.87 2027.82,1840.87 2028.81,1840.87 2029.79,1840.87 2030.77,1840.87 2031.75,1840.87 2032.74,1840.87 2033.72,1840.87 2034.7,1840.87 2035.69,1840.87 2036.67,1840.87 2037.65,1840.87 2038.63,1840.87 2039.62,1840.87 2040.6,1840.87 2041.58,1840.87 2042.57,1840.87 2043.55,1840.87 2044.53,1840.87 2045.51,1840.87 2046.5,1840.87 2047.48,1840.87 2048.46,1840.87 2049.45,1840.87 2050.43,1840.87 2051.41,1840.87 2052.39,1840.87 2053.38,1840.87 2054.36,1840.87 2055.34,1840.87 2056.33,1840.87 2057.31,1840.87 2058.29,1840.87 2059.27,1840.87 2060.26,1840.87 2061.24,1840.87 2062.22,1840.87 2063.2,1840.87 2064.19,1840.87 2065.17,1840.87 2066.15,1840.87 2067.14,1840.87 2068.12,1840.87 2069.1,1840.87 2070.08,1840.87 2071.07,1840.87 2072.05,1840.87 2073.03,1840.87 2074.02,1840.87 2075,1840.87 2075.98,1840.87 2076.96,1840.87 2077.95,1840.87 2078.93,1840.87 2079.91,1840.87 2080.9,1840.87 2081.88,1840.87 2082.86,1840.87 2083.84,1840.87 2084.83,1840.87 2085.81,1840.87 2086.79,1840.87 2087.78,1840.87 2088.76,1840.87 2089.74,1840.87 2090.72,1840.87 2091.71,1840.87 2092.69,1840.87 2093.67,1840.87 2094.65,1840.87 2095.64,1840.87 2096.62,1840.87 2097.6,1840.87 2098.59,1840.87 2099.57,1840.87 2100.55,1840.87 2101.53,1840.87 2102.52,1840.87 2103.5,1840.87 2104.48,1840.87 2105.47,1840.87 2106.45,1840.87 2107.43,1840.87 2108.41,1840.87 2109.4,1840.87 2110.38,1840.87 2111.36,1840.87 2112.35,1840.87 2113.33,1840.87 2114.31,1840.87 2115.29,1840.87 2116.28,1840.87 2117.26,1840.87 2118.24,1840.87 2119.23,1840.87 2120.21,1840.87 2121.19,1840.87 2122.17,1840.87 2123.16,1840.87 2124.14,1840.87 2125.12,1840.87 2126.11,1840.87 2127.09,1840.87 2128.07,1840.87 2129.05,1840.87 2130.04,1840.87 2131.02,1840.87 2132,1840.87 2132.98,1840.87 2133.97,1840.87 2134.95,1840.87 2135.93,1840.87 2136.92,1840.87 2137.9,1840.87 2138.88,1840.87 2139.86,1840.87 2140.85,1840.87 2141.83,1840.87 2142.81,1840.87 2143.8,1840.87 2144.78,1840.87 2145.76,1840.87 2146.74,1840.87 2147.73,1840.87 2148.71,1840.87 2149.69,1840.87 2150.68,1840.87 2151.66,1840.87 2152.64,1840.87 2153.62,1840.87 2154.61,1840.87 2155.59,1840.87 2156.57,1840.87 2157.56,1840.87 2158.54,1840.87 2159.52,1840.87 2160.5,1840.87 2161.49,1840.87 2162.47,1840.87 2163.45,1840.87 2164.43,1840.87 2165.42,1840.87 2166.4,1840.87 2167.38,1840.87 2168.37,1840.87 2169.35,1840.87 2170.33,1840.87 2171.31,1840.87 2172.3,1840.87 2173.28,1840.87 2174.26,1840.87 2175.25,1840.87 2176.23,1840.87 2177.21,1840.87 2178.19,1840.87 2179.18,1840.87 2180.16,1840.87 2181.14,1840.87 2182.13,1840.87 2183.11,1840.87 2184.09,1840.87 2185.07,1840.87 2186.06,1840.87 2187.04,1840.87 2188.02,1840.87 2189.01,1840.87 2189.99,1840.87 2190.97,1840.87 2191.95,1840.87 2192.94,1840.87 2193.92,1840.87 2194.9,1840.87 2195.89,1840.87 2196.87,1840.87 2197.85,1840.87 2198.83,1840.87 2199.82,1840.87 2200.8,1840.87 2201.78,1840.87 2202.76,1840.87 2203.75,1840.87 2204.73,1840.87 2205.71,1840.87 2206.7,1840.87 2207.68,1840.87 2208.66,1840.87 2209.64,1840.87 2210.63,1840.87 2211.61,1840.87 2212.59,1840.87 2213.58,1840.87 2214.56,1840.87 2215.54,1840.87 2216.52,1840.87 2217.51,1840.87 2218.49,1840.87 2219.47,1840.87 2220.46,1840.87 2221.44,1840.87 2222.42,1840.87 2223.4,1840.87 2224.39,1840.87 2225.37,1840.87 2226.35,1840.87 2227.34,1840.87 2228.32,1840.87 2229.3,1840.87 2230.28,1840.87 2231.27,1840.87 2232.25,1840.87 2233.23,1840.87 2234.21,1840.87 2235.2,1840.87 2236.18,1840.87 2237.16,1840.87 2238.15,1840.87 2239.13,1840.87 2240.11,1840.87 2241.09,1840.87 2242.08,1840.87 2243.06,1840.87 2244.04,1840.87 2245.03,1840.87 2246.01,1840.87 2246.99,1840.87 2247.97,1840.87 2248.96,1840.87 2249.94,1840.87 2250.92,1840.87 2251.91,1840.87 2252.89,1840.87 2253.87,1840.87 2254.85,1840.87 2255.84,1840.87 2256.82,1840.87 2257.8,1840.87 2258.79,1840.87 2259.77,1840.87 2260.75,1840.87 2261.73,1840.87 2262.72,1840.87 2263.7,1840.87 2264.68,1840.87 2265.67,1840.87 2266.65,1840.87 2267.63,1840.87 2268.61,1840.87 2269.6,1840.87 2270.58,1840.87 2271.56,1840.87 2272.54,1840.87 2273.53,1840.87 2274.51,1840.87 2275.49,1840.87 2276.48,1840.87 2277.46,1840.87 2278.44,1840.87 2279.42,1840.87 2280.41,1840.87 2281.39,1840.87 2282.37,1840.87 2283.36,1840.87 2284.34,1840.87 2285.32,1840.87 2286.3,1840.87 2287.29,1840.87 2288.27,1840.87 2289.25,1840.87 2290.24,1840.87 2291.22,1840.87 2292.2,1840.87 2293.18,1840.87 2294.17,1840.87 2295.15,1840.87 2296.13,1840.87 2297.12,1840.87 2298.1,1840.87 2299.08,1840.87 2300.06,1840.87 2301.05,1840.87 2302.03,1840.87 2303.01,1840.87 2303.99,1840.87 2304.98,1840.87 2305.96,1840.87 2306.94,1840.87 2307.93,1840.87 2308.91,1840.87 2309.89,1840.87 2310.87,1840.87 2311.86,1840.87 2312.84,1840.87 2313.82,1840.87 2314.81,1840.87 2315.79,1840.87 2316.77,1840.87 2317.75,1840.87 2318.74,1840.87 2319.72,1840.87 2320.7,1840.87 2321.69,1840.87 2322.67,1840.87 2323.65,1840.87 2324.63,1840.87 2325.62,1840.87 2326.6,1840.87 2327.58,1840.87 2328.57,1840.87 2329.55,1840.87 2330.53,1840.87 2331.51,1840.87 2332.5,1840.87 2333.48,1840.87 2334.46,1840.87 2335.45,1840.87 2336.43,1840.87 2337.41,1840.87 2338.39,1840.87 2339.38,1840.87 2340.36,1840.87 2341.34,1840.87 2342.32,1840.87 2343.31,1840.87 2344.29,1840.87 2345.27,1840.87 2346.26,1840.87 2347.24,1840.87 2348.22,1840.87 2349.2,1840.87 2350.19,1840.87 2351.17,1840.87 2352.15,1840.87 2353.14,1840.87 2354.12,1840.87 2355.1,1840.87 2356.08,1840.87 2357.07,1840.87 2358.05,1840.87 2359.03,1840.87 2360.02,1840.87 2361,1840.87 2361.98,1840.87 2362.96,1840.87 2363.95,1840.87 2364.93,1840.87 2365.91,1840.87 2366.9,1840.87 2367.88,1840.87 2368.86,1840.87 2369.84,1840.87 2370.83,1840.87 2371.81,1840.87 2372.79,1840.87 2373.78,1840.87 2374.76,1840.87 2375.74,1840.87 2376.72,1840.87 2377.71,1840.87 2378.69,1840.87 2379.67,1840.87 2380.65,1840.87 2381.64,1840.87 2382.62,1840.87 2383.6,1840.87 2384.59,1840.87 2385.57,1840.87 2386.55,1840.87 2387.53,1840.87 2388.52,1840.87 2389.5,1840.87 2390.48,1840.87 2391.47,1840.87 2392.45,1840.87 2393.43,1840.87 2394.41,1840.87 2395.4,1840.87 2396.38,1840.87 2397.36,1840.87 2398.35,1840.87 2399.33,1840.87 2400.31,1840.87 2401.29,1840.87 2402.28,1840.87 2403.26,1840.87 2404.24,1840.87 2405.23,1840.87 2406.21,1840.87 2407.19,1840.87 2408.17,1840.87 2409.16,1840.87 2410.14,1840.87 2411.12,1840.87 2412.1,1840.87 2413.09,1840.87 2414.07,1840.87 2415.05,1840.87 2416.04,1840.87 2417.02,1840.87 2418,1840.87 2418.98,1840.87 2419.97,1840.87 2420.95,1840.87 2421.93,1840.87 2422.92,1840.87 2423.9,1840.87 2424.88,1840.87 2425.86,1840.87 2426.85,1840.87 2427.83,1840.87 2428.81,1840.87 2429.8,1840.87 2430.78,1840.87 2431.76,1840.87 2432.74,1840.87 2433.73,1840.87 2434.71,1840.87 2435.69,1840.87 2436.68,1840.87 2437.66,1840.87 2438.64,1840.87 2439.62,1840.87 2440.61,1840.87 2441.59,1840.87 2442.57,1840.87 2443.56,1840.87 2444.54,1840.87 2445.52,1840.87 2446.5,1840.87 2447.49,1840.87 2448.47,1840.87 2449.45,1840.87 2450.43,1840.87 2451.42,1840.87 2452.4,1840.87 2453.38,1840.87 2454.37,1840.87 2455.35,1840.87 2456.33,1840.87 2457.31,1840.87 2458.3,1840.87 2459.28,1840.87 2460.26,1840.87 2461.25,1840.87 2462.23,1840.87 2463.21,1840.87 2464.19,1840.87 2465.18,1840.87 2466.16,1840.87 2467.14,1840.87 2468.13,1840.87 2469.11,1840.87 2470.09,1840.87 2471.07,1840.87 2472.06,1840.87 2473.04,1840.87 2474.02,1840.87 2475.01,1840.87 2475.99,1840.87 2476.97,1840.87 2477.95,1840.87 2478.94,1840.87 2479.92,1840.87 2480.9,1840.87 2481.88,1840.87 2482.87,1840.87 2483.85,1840.87 2484.83,1840.87 2485.82,1840.87 2486.8,1840.87 2487.78,1840.87 2488.76,1840.87 2489.75,1840.87 2490.73,1840.87 2491.71,1840.87 2492.7,1840.87 2493.68,1840.87 2494.66,1840.87 2495.64,1840.87 2496.63,1840.87 2497.61,1840.87 2498.59,1840.87 2499.58,1840.87 2500.56,1840.87 2501.54,1840.87 2502.52,1840.87 2503.51,1840.87 2504.49,1840.87 2505.47,1840.87 2506.46,1840.87 2507.44,1840.87 2508.42,1840.87 2509.4,1840.87 2510.39,1840.87 2511.37,1840.87 2512.35,1840.87 2513.34,1840.87 2514.32,1840.87 2515.3,1840.87 2516.28,1840.87 2517.27,1840.87 2518.25,1840.87 2519.23,1840.87 2520.21,1840.87 2521.2,1840.87 2522.18,1840.87 2523.16,1840.87 2524.15,1840.87 2525.13,1840.87 2526.11,1840.87 2527.09,1840.87 2528.08,1840.87 2529.06,1840.87 2530.04,1840.87 2531.03,1840.87 2532.01,1840.87 2532.99,1840.87 2533.97,1840.87 2534.96,1840.87 2535.94,1840.87 2536.92,1840.87 2537.91,1840.87 2538.89,1840.87 2539.87,1840.87 2540.85,1840.87 2541.84,1840.87 2542.82,1840.87 2543.8,1840.87 2544.79,1840.87 2545.77,1840.87 2546.75,1840.87 2547.73,1840.87 2548.72,1840.87 2549.7,1840.87 2550.68,1840.87 2551.66,1840.87 2552.65,1840.87 2553.63,1840.87 2554.61,1840.87 2555.6,1840.87 2556.58,1840.87 2557.56,1840.87 2558.54,1840.87 2559.53,1840.87 2560.51,1840.87 2561.49,1840.87 2562.48,1840.87 2563.46,1840.87 2564.44,1840.87 2565.42,1840.87 2566.41,1840.87 2567.39,1840.87 2568.37,1840.87 2569.36,1840.87 2570.34,1840.87 2571.32,1840.87 2572.3,1840.87 2573.29,1840.87 2574.27,1840.87 2575.25,1840.87 2576.24,1840.87 2577.22,1840.87 2578.2,1840.87 2579.18,1840.87 2580.17,1840.87 2581.15,1840.87 2582.13,1840.87 2583.12,1840.87 2584.1,1840.87 2585.08,1840.87 2586.06,1840.87 2587.05,1840.87 2588.03,1840.87 2589.01,1840.87 2589.99,1840.87 2590.98,1840.87 2591.96,1840.87 2592.94,1840.87 2593.93,1840.87 2594.91,1840.87 2595.89,1840.87 2596.87,1840.87 2597.86,1840.87 2598.84,1840.87 2599.82,1840.87 2600.81,1840.87 2601.79,1840.87 2602.77,1840.87 2603.75,1840.87 2604.74,1840.87 2605.72,1840.87 2606.7,1840.87 2607.69,1840.87 2608.67,1840.87 2609.65,1840.87 2610.63,1840.87 2611.62,1840.87 2612.6,1840.87 2613.58,1840.87 2614.57,1840.87 2615.55,1840.87 2616.53,1840.87 2617.51,1840.87 2618.5,1840.87 2619.48,1840.87 2620.46,1840.87 2621.44,1840.87 2622.43,1840.87 2623.41,1840.87 2624.39,1840.87 2625.38,1840.87 2626.36,1840.87 2627.34,1840.87 2628.32,1840.87 2629.31,1840.87 2630.29,1840.87 2631.27,1840.87 2632.26,1840.87 2633.24,1840.87 2634.22,1840.87 2635.2,1840.87 2636.19,1840.87 2637.17,1840.87 2638.15,1840.87 2639.14,1840.87 2640.12,1840.87 2641.1,1840.87 2642.08,1840.87 2643.07,1840.87 2644.05,1840.87 2645.03,1840.87 2646.02,1840.87 2647,1840.87 2647.98,1840.87 2648.96,1840.87 2649.95,1840.87 2650.93,1840.87 2651.91,1840.87 2652.9,1840.87 2653.88,1840.87 2654.86,1840.87 2655.84,1840.87 2656.83,1840.87 2657.81,1840.87 2658.79,1840.87 2659.77,1840.87 2660.76,1840.87 2661.74,1840.87 2662.72,1840.87 2663.71,1840.87 2664.69,1840.87 2665.67,1840.87 2666.65,1840.87 2667.64,1840.87 2668.62,1840.87 2669.6,1840.87 2670.59,1840.87 2671.57,1840.87 2672.55,1840.87 2673.53,1840.87 2674.52,1840.87 2675.5,1840.87 2676.48,1840.87 2677.47,1840.87 2678.45,1840.87 2679.43,1837.23 2680.41,1830.87 2681.4,1826.97 2682.38,1825.62 2683.36,1825.62 2684.35,1825.62 2685.33,1825.62 2686.31,1825.62 2687.29,1825.62 2688.28,1825.62 2689.26,1825.62 2690.24,1825.62 2691.22,1825.62 2692.21,1825.62 2693.19,1825.62 2694.17,1825.62 2695.16,1824.68 2696.14,1822.68 2697.12,1821.61 2698.1,1821.61 2699.09,1821.61 2700.07,1821.61 2701.05,1821.61 2702.04,1821.61 2703.02,1821.61 2704,1821.61 2704.98,1821.61 2705.97,1821.61 2706.95,1821.61 2707.93,1821.61 2708.92,1821.61 2709.9,1821.61 2710.88,1821.61 2711.86,1821.61 2712.85,1821.61 2713.83,1821.61 2714.81,1821.61 2715.8,1821.61 2716.78,1821.61 2717.76,1821.61 2718.74,1820.95 2719.73,1819.98 2720.71,1819.55 2721.69,1819.39 2722.68,1819.39 2723.66,1819.39 2724.64,1819.39 2725.62,1819.39 2726.61,1819.39 2727.59,1819.39 2728.57,1819.39 2729.55,1819.39 2730.54,1819.39 2731.52,1819.39 2732.5,1819.39 2733.49,1819.39 2734.47,1819.39 2735.45,1819.39 2736.43,1819.39 2737.42,1819.39 2738.4,1819.39 2739.38,1819.39 2740.37,1819.39 2741.35,1819.39 2742.33,1819.39 2743.31,1819.39 2744.3,1819.39 2745.28,1819.39 2746.26,1819.39 2747.25,1819.39 2748.23,1819.39 2749.21,1819.39 2750.19,1819.39 2751.18,1819.39 2752.16,1819.39 2753.14,1819.39 2754.13,1819.39 2755.11,1819.39 2756.09,1819.39 2757.07,1819.39 2758.06,1819.39 2759.04,1819.39 2760.02,1819.39 2761,1819.39 2761.99,1819.39 2762.97,1819.39 2763.95,1819.39 2764.94,1819.39 2765.92,1818.11 2766.9,1815.59 2767.88,1813.64 2768.87,1812.9 2769.85,1811.54 2770.83,1807.22 2771.82,1798.45 2772.8,1787.65 2773.78,1779.23 2774.76,1774.49 2775.75,1772.82 2776.73,1771.63 2777.71,1770.26 2778.7,1769.14 2779.68,1768.28 2780.66,1767.95 2781.64,1767.95 2782.63,1767.95 2783.61,1767.95 2784.59,1767.95 2785.58,1767.95 2786.56,1766.36 2787.54,1762.72 2788.52,1759.2 2789.51,1757.15 2790.49,1756.41 2791.47,1756.14 2792.46,1756.05 2793.44,1756.05 2794.42,1753.46 2795.4,1744.13 2796.39,1733.54 2797.37,1726.76 2798.35,1721.37 2799.33,1716.79 2800.32,1711.27 2801.3,1704.47 2802.28,1699.2 2803.27,1696.66 2804.25,1696.01 2805.23,1696.01 2806.21,1696.01 2807.2,1696.01 2808.18,1696.01 2809.16,1696.01 2810.15,1696.01 2811.13,1696.01 2812.11,1696.01 2813.09,1696.01 2814.08,1696.01 2815.06,1695.43 2816.04,1694.84 2817.03,1694.84 2818.01,1694.84 2818.99,1694.84 2819.97,1694.84 2820.96,1694.84 2821.94,1694.84 2822.92,1694.84 2823.91,1695.12 2824.89,1701.39 2825.87,1711.37 2826.85,1718.49 2827.84,1717.79 2828.82,1715.02 2829.8,1722.07 2830.78,1736.64 2831.77,1848.72 2832.75,1848.72 2833.73,1848.72 2834.72,1848.72 2835.7,1848.72 2836.68,1848.72 2837.66,1848.72 2838.65,1848.72 2839.63,1848.72 2840.61,1848.72 2841.6,1848.72 2842.58,1848.72 2843.56,1848.72 2844.54,1848.72 2845.53,1848.72 2846.51,1848.72 2847.49,1848.72 2848.48,1848.72 2849.46,1848.72 2850.44,1848.72 2851.42,1848.72 2852.41,1846.35 2853.39,1842.27 2854.37,1838.9 2855.36,1837.2 2856.34,1836.35 2857.32,1834.81 2858.3,1833.56 2859.29,1833 2860.27,1833 2861.25,1833 2862.24,1832.09 2863.22,1831.17 2864.2,1829.77 2865.18,1821.96 2866.17,1806.59 2867.15,1795.73 2868.13,1793.6 2869.11,1793.29 2870.1,1793.14 2871.08,1793.08 2872.06,1793.08 2873.05,1793.08 2874.03,1793.08 2875.01,1793.08 2875.99,1792.52 2876.98,1791.61 2877.96,1790.82 2878.94,1790.37 2879.93,1789.83 2880.91,1789.1 2881.89,1788.65 2882.87,1788.4 2883.86,1788.4 2884.84,1788.4 2885.82,1788.4 2886.81,1788.4 2887.79,1788.4 2888.77,1788.4 2889.75,1788.4 2890.74,1788.4 2891.72,1788.4 2892.7,1788.4 2893.69,1788.4 2894.67,1788.4 2895.65,1788.4 2896.63,1788.4 2897.62,1788.4 2898.6,1788.4 2899.58,1788.4 2900.57,1788.4 2901.55,1788.4 2902.53,1788.4 2903.51,1788.4 2904.5,1788.4 2905.48,1788.4 2906.46,1788.4 2907.44,1788.4 2908.43,1788.4 2909.41,1788.4 2910.39,1786.34 2911.38,1776.01 2912.36,1756.6 2913.34,1741.67 2914.32,1848.78 2915.31,1848.78 2916.29,1848.78 2917.27,1848.78 2918.26,1848.78 2919.24,1848.78 2920.22,1848.78 2921.2,1848.78 2922.19,1848.78 2923.17,1848.78 2924.15,1848.78 2925.14,1848.78 2926.12,1848.78 2927.1,1847.4 2928.08,1845.08 2929.07,1843.97 2930.05,1843.79 2931.03,1843.04 2932.02,1841.94 2933,1841.08 2933.98,1840.55 2934.96,1839.85 2935.95,1838.5 2936.93,1837.37 2937.91,1836.86 2938.89,1836.86 2939.88,1836.86 2940.86,1836.86 2941.84,1835.94 2942.83,1833.24 2943.81,1828.49 2944.79,1824.5 2945.77,1823.5 2946.76,1823.5 2947.74,1823.5 2948.72,1823.5 2949.71,1823.5 2950.69,1823.5 2951.67,1822.73 2952.65,1821.78 2953.64,1821.6 2954.62,1821.6 2955.6,1820.92 2956.59,1820.08 2957.57,1819.92 2958.55,1819.92 2959.53,1819.92 2960.52,1819.92 2961.5,1819.92 2962.48,1819.92 2963.47,1819.92 2964.45,1819.92 2965.43,1819.92 2966.41,1819.92 2967.4,1819.92 2968.38,1818.85 2969.36,1817.78 2970.35,1815.85 2971.33,1811.1 2972.31,1804.79 2973.29,1798.17 2974.28,1790.77 2975.26,1784.14 2976.24,1779.58 2977.22,1776.31 2978.21,1774.87 2979.19,1774.39 2980.17,1774.26 2981.16,1774.23 2982.14,1774.23 2983.12,1774.23 2984.1,1774.23 2985.09,1774.23 2986.07,1774.23 2987.05,1774.23 2988.04,1774.23 2989.02,1774.23 2990,1774.23 2990.98,1774.23 2991.97,1774.23 2992.95,1774.23 2993.93,1774.23 2994.92,1774.23 2995.9,1774.23 2996.88,1774.23 2997.86,1774.23 2998.85,1774.23 2999.83,1774.23 3000.81,1774.23 3001.8,1774.23 3002.78,1774.23 3003.76,1774.23 3004.74,1774.23 3005.73,1774.23 3006.71,1774.23 3007.69,1774.23 3008.67,1774.23 3009.66,1773.61 3010.64,1772.33 3011.62,1771.33 3012.61,1770.98 3013.59,1770.98 3014.57,1770.98 3015.55,1770.98 3016.54,1770.98 3017.52,1770.98 3018.5,1770.98 3019.49,1770.98 3020.47,1770.98 3021.45,1770.98 3022.43,1770.98 3023.42,1769.94 3024.4,1767.89 3025.38,1765.11 3026.37,1761.46 3027.35,1756.49 3028.33,1752 3029.31,1749.37 3030.3,1746.33 3031.28,1742.56 3032.26,1739.12 3033.25,1736.44 3034.23,1733.77 3035.21,1730.44 3036.19,1728.02 3037.18,1727.3 3038.16,1726.95 3039.14,1726.4 3040.13,1726.05 3041.11,1726.05 3042.09,1726.05 3043.07,1726.05 3044.06,1726.05 3045.04,1726.05 3046.02,1725.26 3047,1724.15 3047.99,1722.94 3048.97,1721.26 3049.95,1719.95 3050.94,1718.78 3051.92,1717.25 3052.9,1715.58 3053.88,1714.3 3054.87,1713.14 3055.85,1711.59 3056.83,1710.02 3057.82,1708.83 3058.8,1707.98 3059.78,1707.62 3060.76,1707.62 3061.75,1707.62 3062.73,1707.62 3063.71,1707.62 3064.7,1707.62 3065.68,1707.62 3066.66,1707.62 "/>
</svg>
